solid MATLAB_1
facet normal -0.760227442 0.567220211 0.316726148
  outer loop
   vertex 81165.6797 19931.3809 61872.6211
   vertex 81226.5859 20002.9434 61890.6445
   vertex 81115.4375 19938.0918 61740.0039
  endloop
 endfacet
facet normal -0.458302498 -0.30097124 -0.836286485
  outer loop
   vertex 80991.5391 19716.2148 61071.9531
   vertex 80989.3672 19738.8594 61065
   vertex 81018.2109 19715.8457 61057.4688
  endloop
 endfacet
facet normal 0.589757264 -0.0836932734 -0.803232074
  outer loop
   vertex 81348.9844 19989.6191 61363.8047
   vertex 81299.6094 19982.1816 61328.332
   vertex 81352.4609 20021.1699 61363.0703
  endloop
 endfacet
facet normal -0.48973605 -0.864091754 0.116206765
  outer loop
   vertex 81068.8516 19627.0312 61096.3477
   vertex 81094.5234 19618.9043 61144.0938
   vertex 81023.3672 19654.6953 61110.3398
  endloop
 endfacet
facet normal -0.316883236 -0.915098488 0.249358773
  outer loop
   vertex 81134.1719 19693.2051 61607.332
   vertex 81065.8594 19721.0605 61622.75
   vertex 81045.0234 19670.9824 61412.5039
  endloop
 endfacet
facet normal -0.163413048 -0.969002128 0.185286298
  outer loop
   vertex 81134.1719 19693.2051 61607.332
   vertex 81045.0234 19670.9824 61412.5039
   vertex 81143.6953 19658.1602 61432.4648
  endloop
 endfacet
facet normal 0.770003736 -0.638025045 -0.00427762698
  outer loop
   vertex 81225.1484 19720.1973 61567.5391
   vertex 81300.5234 19811.4238 61528.3945
   vertex 81318.9531 19832.3379 61726.3828
  endloop
 endfacet
facet normal -0.980536878 -0.13742812 -0.140217304
  outer loop
   vertex 80976.3281 19764.3223 61131.2266
   vertex 80989.3672 19738.8594 61065
   vertex 80991.5391 19716.2148 61071.9531
  endloop
 endfacet
facet normal 0.689860165 0.178460613 -0.701601565
  outer loop
   vertex 81184.0234 19748.4648 61204.2031
   vertex 81078.8125 19734.6133 61097.2305
   vertex 81189.7578 19866.8184 61239.9492
  endloop
 endfacet
facet normal 0.760993421 0.153491691 -0.630340636
  outer loop
   vertex 81299.0312 19887.1504 61376.8281
   vertex 81184.0234 19748.4648 61204.2031
   vertex 81189.7578 19866.8184 61239.9492
  endloop
 endfacet
facet normal -0.996871829 -0.0391904823 -0.0686340854
  outer loop
   vertex 80966.25 19802.9727 61255.5078
   vertex 80976.3281 19764.3223 61131.2266
   vertex 80973.8438 19668.4082 61221.9688
  endloop
 endfacet
facet normal -0.860023856 -0.502842069 0.0866534188
  outer loop
   vertex 80966.25 19802.9727 61255.5078
   vertex 80951.1484 19814.7754 61174.1523
   vertex 80976.3281 19764.3223 61131.2266
  endloop
 endfacet
facet normal 0.923256397 -0.33997947 -0.17891781
  outer loop
   vertex 81300.5234 19811.4238 61528.3945
   vertex 81299.0312 19887.1504 61376.8281
   vertex 81386.75 19971.8867 61668.4219
  endloop
 endfacet
facet normal 0.933655322 -0.256273448 -0.250223309
  outer loop
   vertex 81184.0234 19748.4648 61204.2031
   vertex 81200.5078 19690.6113 61324.9805
   vertex 81149.1562 19656.957 61167.8281
  endloop
 endfacet
facet normal -0.734557748 0.678120732 -0.0240241718
  outer loop
   vertex 81082.8906 19953.3516 61487.0547
   vertex 81029.25 19888.8086 61305.4375
   vertex 80999.125 19859.5371 61400.3555
  endloop
 endfacet
facet normal -0.798880339 0.585316658 0.138544574
  outer loop
   vertex 81082.8906 19953.3516 61487.0547
   vertex 80999.125 19859.5371 61400.3555
   vertex 81028.8516 19862.0078 61561.3359
  endloop
 endfacet
facet normal 0.577703238 -0.373802245 -0.725624442
  outer loop
   vertex 81299.0312 19887.1504 61376.8281
   vertex 81299.6094 19982.1816 61328.332
   vertex 81348.9844 19989.6191 61363.8047
  endloop
 endfacet
facet normal 0.722291946 -0.503577888 -0.474029154
  outer loop
   vertex 81068.8516 19627.0312 61096.3477
   vertex 81088.0859 19654.4707 61096.5
   vertex 81094.5234 19618.9043 61144.0938
  endloop
 endfacet
facet normal -0.85517478 0.136575654 0.500023246
  outer loop
   vertex 81226.5859 20002.9434 61890.6445
   vertex 81259.0625 19926.25 61967.1328
   vertex 81307.6719 20036.1777 62020.2461
  endloop
 endfacet
facet normal -0.646330833 0.383971751 0.659410477
  outer loop
   vertex 81226.5859 20002.9434 61890.6445
   vertex 81165.6797 19931.3809 61872.6211
   vertex 81259.0625 19926.25 61967.1328
  endloop
 endfacet
facet normal -0.429900676 0.761298835 0.485396236
  outer loop
   vertex 81350.7812 20052.3789 62095.9648
   vertex 81409.2734 20068.8027 62122.0039
   vertex 81402.8906 20095.1816 62074.9805
  endloop
 endfacet
facet normal -0.750836611 0.527334154 0.3976973
  outer loop
   vertex 81443.2734 20111.6523 62129.3828
   vertex 81402.8906 20095.1816 62074.9805
   vertex 81409.2734 20068.8027 62122.0039
  endloop
 endfacet
facet normal -0.672561646 0.679317713 0.293578476
  outer loop
   vertex 81443.2734 20111.6523 62129.3828
   vertex 81449.7969 20118.9492 62127.4375
   vertex 81402.8906 20095.1816 62074.9805
  endloop
 endfacet
facet normal 0.206464127 -0.780462503 0.590127885
  outer loop
   vertex 81461.1406 20122.0742 62136.9141
   vertex 81443.2734 20111.6523 62129.3828
   vertex 81468.5234 20091.834 62094.3398
  endloop
 endfacet
facet normal -0.256531656 0.962009788 0.0934274271
  outer loop
   vertex 81330.2109 20081.791 61922.6406
   vertex 81444.1484 20108.3965 61961.5352
   vertex 81362.7109 20104.082 61782.3555
  endloop
 endfacet
facet normal 0.718720615 -0.619498253 -0.315693915
  outer loop
   vertex 81492.3125 20029.6113 62113.8594
   vertex 81491.375 20044.5586 62082.3945
   vertex 81510.6797 20043.9375 62127.5625
  endloop
 endfacet
facet normal -0.378021061 0.923900485 0.0592277087
  outer loop
   vertex 81330.2109 20081.791 61922.6406
   vertex 81362.7109 20104.082 61782.3555
   vertex 81238.0234 20055.7637 61740.25
  endloop
 endfacet
facet normal -0.185328379 0.977719605 0.0985785276
  outer loop
   vertex 81444.1484 20108.3965 61961.5352
   vertex 81497.5 20113.9121 62007.125
   vertex 81501.5078 20116.6973 61987.0547
  endloop
 endfacet
facet normal -0.585941315 0.793619096 0.163833901
  outer loop
   vertex 81307.6719 20036.1777 62020.2461
   vertex 81350.7812 20052.3789 62095.9648
   vertex 81402.8906 20095.1816 62074.9805
  endloop
 endfacet
facet normal -0.0382327586 0.693135977 -0.719792187
  outer loop
   vertex 81299.6094 19982.1816 61328.332
   vertex 81317.4453 20031.6602 61375.0312
   vertex 81352.4609 20021.1699 61363.0703
  endloop
 endfacet
facet normal -0.374594986 0.838337123 -0.396067441
  outer loop
   vertex 80989.3672 19738.8594 61065
   vertex 80976.3281 19764.3223 61131.2266
   vertex 81014.1719 19756.1074 61078.0391
  endloop
 endfacet
facet normal -0.529632807 0.8293975 -0.177732587
  outer loop
   vertex 81350.25 20111.1855 61577.0273
   vertex 81315.4688 20072.7422 61501.2734
   vertex 81316.5469 20100.3535 61626.9297
  endloop
 endfacet
facet normal 0.358791709 -0.911263645 0.202156156
  outer loop
   vertex 81225.1484 19720.1973 61567.5391
   vertex 81134.1719 19693.2051 61607.332
   vertex 81143.6953 19658.1602 61432.4648
  endloop
 endfacet
facet normal -0.477404743 -0.877983153 0.0350759961
  outer loop
   vertex 81089.1328 19794.5801 61793.8438
   vertex 81064.9453 19804.3633 61709.4414
   vertex 81140.2578 19766.7324 61792.6016
  endloop
 endfacet
facet normal -0.782471359 0.0845546573 -0.616919041
  outer loop
   vertex 80976.9531 19816.0059 61137.5117
   vertex 80976.3281 19764.3223 61131.2266
   vertex 80966.5156 19822.5488 61151.6484
  endloop
 endfacet
facet normal -0.654376805 0.730774224 -0.194319412
  outer loop
   vertex 80966.5156 19822.5488 61151.6484
   vertex 80951.1484 19814.7754 61174.1523
   vertex 80972.8125 19841.6621 61202.3164
  endloop
 endfacet
facet normal -0.0342660472 0.89714092 -0.440413445
  outer loop
   vertex 80966.5156 19822.5488 61151.6484
   vertex 81036.6484 19836.9121 61175.4531
   vertex 80976.9531 19816.0059 61137.5117
  endloop
 endfacet
facet normal -0.83311671 0.0527495965 -0.550576091
  outer loop
   vertex 80976.3281 19764.3223 61131.2266
   vertex 80951.1484 19814.7754 61174.1523
   vertex 80966.5156 19822.5488 61151.6484
  endloop
 endfacet
facet normal -0.485518277 0.61581701 -0.620517075
  outer loop
   vertex 80973.8438 19668.4082 61221.9688
   vertex 80970.3672 19616.1934 61172.8711
   vertex 80950.3906 19612.3555 61184.6914
  endloop
 endfacet
facet normal -0.88226819 -0.31129694 -0.353124708
  outer loop
   vertex 80973.8438 19668.4082 61221.9688
   vertex 80976.3281 19764.3223 61131.2266
   vertex 81023.3672 19654.6953 61110.3398
  endloop
 endfacet
facet normal -0.800637364 0.437879622 -0.408951402
  outer loop
   vertex 80973.8438 19668.4082 61221.9688
   vertex 81023.3672 19654.6953 61110.3398
   vertex 80970.3672 19616.1934 61172.8711
  endloop
 endfacet
facet normal -0.907609403 -0.408159345 0.0982402787
  outer loop
   vertex 80991.5391 19716.2148 61071.9531
   vertex 81023.3672 19654.6953 61110.3398
   vertex 80976.3281 19764.3223 61131.2266
  endloop
 endfacet
facet normal 0.246914268 -0.947319746 -0.204006508
  outer loop
   vertex 80960.8125 19610.3965 61188.2227
   vertex 80970.3672 19616.1934 61172.8711
   vertex 81010.8984 19618.7227 61210.1797
  endloop
 endfacet
facet normal -0.0459275432 -0.924760461 -0.377768129
  outer loop
   vertex 80970.3672 19616.1934 61172.8711
   vertex 80960.8125 19610.3965 61188.2227
   vertex 80950.3906 19612.3555 61184.6914
  endloop
 endfacet
facet normal -0.964979291 0.0548907146 0.256518871
  outer loop
   vertex 81064.9453 19804.3633 61709.4414
   vertex 81028.8516 19862.0078 61561.3359
   vertex 81018.9922 19753.9785 61547.375
  endloop
 endfacet
facet normal -0.302382082 -0.427589208 0.851899385
  outer loop
   vertex 80973.8438 19668.4082 61221.9688
   vertex 80960.8125 19610.3965 61188.2227
   vertex 81010.8984 19618.7227 61210.1797
  endloop
 endfacet
facet normal -0.735468924 -0.615598559 0.283061683
  outer loop
   vertex 80973.8438 19668.4082 61221.9688
   vertex 81010.8984 19618.7227 61210.1797
   vertex 81045.0234 19670.9824 61412.5039
  endloop
 endfacet
facet normal -0.360757619 -0.407052428 0.839143753
  outer loop
   vertex 80973.8438 19668.4082 61221.9688
   vertex 80950.3906 19612.3555 61184.6914
   vertex 80960.8125 19610.3965 61188.2227
  endloop
 endfacet
facet normal 0.576339006 -0.512723505 -0.636355221
  outer loop
   vertex 81018.2109 19715.8457 61057.4688
   vertex 81031.6484 19735.5195 61053.7852
   vertex 81078.8125 19734.6133 61097.2305
  endloop
 endfacet
facet normal -0.206251875 0.149918661 -0.966946006
  outer loop
   vertex 81023.3672 19654.6953 61110.3398
   vertex 81088.0859 19654.4707 61096.5
   vertex 81068.8516 19627.0312 61096.3477
  endloop
 endfacet
facet normal 0.236841813 -0.971282303 -0.0227300785
  outer loop
   vertex 81094.5234 19618.9043 61144.0938
   vertex 81109.3203 19619.7715 61261.2969
   vertex 81056.7109 19609.1348 61167.5352
  endloop
 endfacet
facet normal 0.558591723 0.159875706 -0.813888848
  outer loop
   vertex 81040.6562 19689.1641 61062.1172
   vertex 81078.8125 19734.6133 61097.2305
   vertex 81056.2109 19675.1738 61070.043
  endloop
 endfacet
facet normal 0.474887103 0.252637416 -0.843004525
  outer loop
   vertex 81040.6562 19689.1641 61062.1172
   vertex 81018.2109 19715.8457 61057.4688
   vertex 81078.8125 19734.6133 61097.2305
  endloop
 endfacet
facet normal -0.491704434 -0.797828317 -0.348850638
  outer loop
   vertex 81023.3672 19654.6953 61110.3398
   vertex 81056.7109 19609.1348 61167.5352
   vertex 81010.8984 19618.7227 61210.1797
  endloop
 endfacet
facet normal 0.319361925 -0.903547645 -0.285674036
  outer loop
   vertex 81023.3672 19654.6953 61110.3398
   vertex 81010.8984 19618.7227 61210.1797
   vertex 80970.3672 19616.1934 61172.8711
  endloop
 endfacet
facet normal -0.140574262 -0.812734723 -0.565421224
  outer loop
   vertex 81056.7109 19609.1348 61167.5352
   vertex 81023.3672 19654.6953 61110.3398
   vertex 81094.5234 19618.9043 61144.0938
  endloop
 endfacet
facet normal 0.668226004 0.0840343684 -0.739197016
  outer loop
   vertex 81056.2109 19675.1738 61070.043
   vertex 81078.8125 19734.6133 61097.2305
   vertex 81088.0859 19654.4707 61096.5
  endloop
 endfacet
facet normal -0.379890054 -0.623100042 -0.683688462
  outer loop
   vertex 81018.2109 19715.8457 61057.4688
   vertex 81023.3672 19654.6953 61110.3398
   vertex 80991.5391 19716.2148 61071.9531
  endloop
 endfacet
facet normal 0.583829463 -0.809327543 0.0642810017
  outer loop
   vertex 81109.3203 19619.7715 61261.2969
   vertex 81200.5078 19690.6113 61324.9805
   vertex 81143.6953 19658.1602 61432.4648
  endloop
 endfacet
facet normal 0.100288287 -0.733463168 0.672290146
  outer loop
   vertex 81109.3203 19619.7715 61261.2969
   vertex 81162.3828 19621.1738 61254.9141
   vertex 81200.5078 19690.6113 61324.9805
  endloop
 endfacet
facet normal 0.445854485 0.059700083 -0.893112361
  outer loop
   vertex 81131.5547 19689.3633 61120.5352
   vertex 81088.0859 19654.4707 61096.5
   vertex 81078.8125 19734.6133 61097.2305
  endloop
 endfacet
facet normal -0.114725374 -0.844688833 -0.522818148
  outer loop
   vertex 81023.3672 19654.6953 61110.3398
   vertex 81056.2109 19675.1738 61070.043
   vertex 81088.0859 19654.4707 61096.5
  endloop
 endfacet
facet normal -0.321951866 -0.711831152 -0.624214232
  outer loop
   vertex 81023.3672 19654.6953 61110.3398
   vertex 81040.6562 19689.1641 61062.1172
   vertex 81056.2109 19675.1738 61070.043
  endloop
 endfacet
facet normal -0.553332388 -0.57096082 -0.606487453
  outer loop
   vertex 81018.2109 19715.8457 61057.4688
   vertex 81040.6562 19689.1641 61062.1172
   vertex 81023.3672 19654.6953 61110.3398
  endloop
 endfacet
facet normal 0.767597497 -0.295029193 -0.568991959
  outer loop
   vertex 81299.0312 19887.1504 61376.8281
   vertex 81189.7578 19866.8184 61239.9492
   vertex 81299.6094 19982.1816 61328.332
  endloop
 endfacet
facet normal 0.628848732 -0.579642773 -0.518231153
  outer loop
   vertex 81094.5234 19618.9043 61144.0938
   vertex 81088.0859 19654.4707 61096.5
   vertex 81149.1562 19656.957 61167.8281
  endloop
 endfacet
facet normal 0.633339226 -0.622920692 -0.459185421
  outer loop
   vertex 81150.6172 19622.1523 61217.0625
   vertex 81094.5234 19618.9043 61144.0938
   vertex 81149.1562 19656.957 61167.8281
  endloop
 endfacet
facet normal 0.630836129 0.389775574 -0.670910418
  outer loop
   vertex 81131.5547 19689.3633 61120.5352
   vertex 81078.8125 19734.6133 61097.2305
   vertex 81184.0234 19748.4648 61204.2031
  endloop
 endfacet
facet normal 0.883453429 -0.161834866 -0.439681202
  outer loop
   vertex 81131.5547 19689.3633 61120.5352
   vertex 81184.0234 19748.4648 61204.2031
   vertex 81149.1562 19656.957 61167.8281
  endloop
 endfacet
facet normal 0.682716846 -0.458949238 -0.568562508
  outer loop
   vertex 81088.0859 19654.4707 61096.5
   vertex 81131.5547 19689.3633 61120.5352
   vertex 81149.1562 19656.957 61167.8281
  endloop
 endfacet
facet normal 0.883036196 -0.364767939 -0.295281976
  outer loop
   vertex 81200.5078 19690.6113 61324.9805
   vertex 81184.0234 19748.4648 61204.2031
   vertex 81299.0312 19887.1504 61376.8281
  endloop
 endfacet
facet normal 0.931296349 -0.213658512 -0.295020521
  outer loop
   vertex 81200.5078 19690.6113 61324.9805
   vertex 81162.3828 19621.1738 61254.9141
   vertex 81150.6172 19622.1523 61217.0625
  endloop
 endfacet
facet normal 0.0224678759 -0.999208808 -0.03281736
  outer loop
   vertex 81162.3828 19621.1738 61254.9141
   vertex 81109.3203 19619.7715 61261.2969
   vertex 81150.6172 19622.1523 61217.0625
  endloop
 endfacet
facet normal 0.924322605 -0.298134685 -0.238208786
  outer loop
   vertex 81200.5078 19690.6113 61324.9805
   vertex 81150.6172 19622.1523 61217.0625
   vertex 81149.1562 19656.957 61167.8281
  endloop
 endfacet
facet normal 0.770789266 -0.637089908 -0.000585483795
  outer loop
   vertex 81225.1484 19720.1973 61567.5391
   vertex 81200.5078 19690.6113 61324.9805
   vertex 81300.5234 19811.4238 61528.3945
  endloop
 endfacet
facet normal 0.685963273 -0.712897062 0.145712748
  outer loop
   vertex 81310.7109 19858.7188 61894.2266
   vertex 81318.9531 19832.3379 61726.3828
   vertex 81409.8359 19953.9062 61893.3008
  endloop
 endfacet
facet normal 0.89548856 -0.394582033 -0.205925256
  outer loop
   vertex 81200.5078 19690.6113 61324.9805
   vertex 81299.0312 19887.1504 61376.8281
   vertex 81300.5234 19811.4238 61528.3945
  endloop
 endfacet
facet normal -0.174132541 -0.952807426 0.248668239
  outer loop
   vertex 81109.3203 19619.7715 61261.2969
   vertex 81143.6953 19658.1602 61432.4648
   vertex 81045.0234 19670.9824 61412.5039
  endloop
 endfacet
facet normal -0.0671893582 -0.986461937 0.149594381
  outer loop
   vertex 81056.7109 19609.1348 61167.5352
   vertex 81109.3203 19619.7715 61261.2969
   vertex 81010.8984 19618.7227 61210.1797
  endloop
 endfacet
facet normal 0.0576709136 -0.99833566 9.35359567e-05
  outer loop
   vertex 81094.5234 19618.9043 61144.0938
   vertex 81150.6172 19622.1523 61217.0625
   vertex 81109.3203 19619.7715 61261.2969
  endloop
 endfacet
facet normal -0.12922065 -0.954608023 0.268375784
  outer loop
   vertex 81045.0234 19670.9824 61412.5039
   vertex 81010.8984 19618.7227 61210.1797
   vertex 81109.3203 19619.7715 61261.2969
  endloop
 endfacet
facet normal 0.557564259 -0.828941524 0.0444752052
  outer loop
   vertex 81200.5078 19690.6113 61324.9805
   vertex 81225.1484 19720.1973 61567.5391
   vertex 81143.6953 19658.1602 61432.4648
  endloop
 endfacet
facet normal -0.196139887 -0.399984241 0.895288646
  outer loop
   vertex 81122.9375 19853.8281 61827.7188
   vertex 81089.1328 19794.5801 61793.8438
   vertex 81140.2578 19766.7324 61792.6016
  endloop
 endfacet
facet normal 0.683766663 -0.72197336 0.105913095
  outer loop
   vertex 81225.1484 19720.1973 61567.5391
   vertex 81318.9531 19832.3379 61726.3828
   vertex 81216.3359 19742.8066 61778.5664
  endloop
 endfacet
facet normal 0.691351593 -0.707783639 0.14517349
  outer loop
   vertex 81318.9531 19832.3379 61726.3828
   vertex 81310.7109 19858.7188 61894.2266
   vertex 81216.3359 19742.8066 61778.5664
  endloop
 endfacet
facet normal 0.313724011 -0.575448632 0.75527221
  outer loop
   vertex 81215.5781 19772.7207 61868.2188
   vertex 81310.7109 19858.7188 61894.2266
   vertex 81259.0625 19926.25 61967.1328
  endloop
 endfacet
facet normal 0.892984927 -0.448666245 -0.0357280634
  outer loop
   vertex 81300.5234 19811.4238 61528.3945
   vertex 81386.75 19971.8867 61668.4219
   vertex 81318.9531 19832.3379 61726.3828
  endloop
 endfacet
facet normal 0.641400576 -0.685411453 -0.344697565
  outer loop
   vertex 81492.3125 20029.6113 62113.8594
   vertex 81418.9531 19990.793 62054.5352
   vertex 81491.375 20044.5586 62082.3945
  endloop
 endfacet
facet normal 0.559754431 -0.819088578 0.125574321
  outer loop
   vertex 81465.3125 20015.5117 62009.1211
   vertex 81491.375 20044.5586 62082.3945
   vertex 81418.9531 19990.793 62054.5352
  endloop
 endfacet
facet normal 0.870317459 -0.475728333 -0.12739715
  outer loop
   vertex 81318.9531 19832.3379 61726.3828
   vertex 81386.75 19971.8867 61668.4219
   vertex 81409.8359 19953.9062 61893.3008
  endloop
 endfacet
facet normal 0.576307058 -0.803132772 0.151155323
  outer loop
   vertex 81409.8359 19953.9062 61893.3008
   vertex 81465.3125 20015.5117 62009.1211
   vertex 81418.9531 19990.793 62054.5352
  endloop
 endfacet
facet normal -0.188756868 -0.541566432 0.819192708
  outer loop
   vertex 81486.0703 20044.3887 62122.1875
   vertex 81492.3125 20029.6113 62113.8594
   vertex 81510.6797 20043.9375 62127.5625
  endloop
 endfacet
facet normal 0.687847555 -0.715063155 0.12470115
  outer loop
   vertex 81418.9531 19990.793 62054.5352
   vertex 81310.7109 19858.7188 61894.2266
   vertex 81409.8359 19953.9062 61893.3008
  endloop
 endfacet
facet normal 0.894196153 -0.389143348 -0.221315771
  outer loop
   vertex 81409.8359 19953.9062 61893.3008
   vertex 81475.9375 20069.6934 61956.7734
   vertex 81465.3125 20015.5117 62009.1211
  endloop
 endfacet
facet normal -0.679180086 0.707123339 0.196700215
  outer loop
   vertex 81115.4375 19938.0918 61740.0039
   vertex 81226.5859 20002.9434 61890.6445
   vertex 81238.0234 20055.7637 61740.25
  endloop
 endfacet
facet normal 0.377215266 0.347710162 -0.858374178
  outer loop
   vertex 81501.5078 20116.6973 61987.0547
   vertex 81513.2031 20115.3496 61991.6484
   vertex 81475.9375 20069.6934 61956.7734
  endloop
 endfacet
facet normal 0.328150749 -0.93770051 0.114169948
  outer loop
   vertex 81134.1719 19693.2051 61607.332
   vertex 81225.1484 19720.1973 61567.5391
   vertex 81216.3359 19742.8066 61778.5664
  endloop
 endfacet
facet normal -0.340604872 -0.859661579 -0.380749643
  outer loop
   vertex 81140.2578 19766.7324 61792.6016
   vertex 81216.3359 19742.8066 61778.5664
   vertex 81188.2891 19727.6914 61837.7812
  endloop
 endfacet
facet normal -0.196337298 -0.923768163 -0.328791738
  outer loop
   vertex 81202.8984 19721.7227 61845.8281
   vertex 81188.2891 19727.6914 61837.7812
   vertex 81216.3359 19742.8066 61778.5664
  endloop
 endfacet
facet normal -0.21701239 -0.904857397 0.366249442
  outer loop
   vertex 81134.1719 19693.2051 61607.332
   vertex 81216.3359 19742.8066 61778.5664
   vertex 81140.2578 19766.7324 61792.6016
  endloop
 endfacet
facet normal -0.846353948 -0.510775805 0.150973722
  outer loop
   vertex 80986.3828 19764.373 61399.7227
   vertex 81045.0234 19670.9824 61412.5039
   vertex 81018.9922 19753.9785 61547.375
  endloop
 endfacet
facet normal -0.849847615 -0.38447392 0.360470325
  outer loop
   vertex 81018.9922 19753.9785 61547.375
   vertex 81065.8594 19721.0605 61622.75
   vertex 81064.9453 19804.3633 61709.4414
  endloop
 endfacet
facet normal -0.540181756 -0.404889047 0.737745583
  outer loop
   vertex 81122.9375 19853.8281 61827.7188
   vertex 81140.2578 19766.7324 61792.6016
   vertex 81259.0625 19926.25 61967.1328
  endloop
 endfacet
facet normal -0.674920082 -0.254972279 0.692439139
  outer loop
   vertex 81215.5781 19772.7207 61868.2188
   vertex 81259.0625 19926.25 61967.1328
   vertex 81140.2578 19766.7324 61792.6016
  endloop
 endfacet
facet normal -0.41693899 0.0454708077 0.907796383
  outer loop
   vertex 81343.2891 20013.5195 62094.4688
   vertex 81409.2734 20068.8027 62122.0039
   vertex 81350.7812 20052.3789 62095.9648
  endloop
 endfacet
facet normal -0.711683273 -0.0144056547 0.702352762
  outer loop
   vertex 81165.6797 19931.3809 61872.6211
   vertex 81122.9375 19853.8281 61827.7188
   vertex 81259.0625 19926.25 61967.1328
  endloop
 endfacet
facet normal 0.406856835 0.654756725 -0.636993885
  outer loop
   vertex 81036.6484 19836.9121 61175.4531
   vertex 81078.8125 19734.6133 61097.2305
   vertex 81014.1719 19756.1074 61078.0391
  endloop
 endfacet
facet normal -0.989688933 -0.0846867412 0.115516141
  outer loop
   vertex 80966.25 19802.9727 61255.5078
   vertex 80973.8438 19668.4082 61221.9688
   vertex 80986.3828 19764.373 61399.7227
  endloop
 endfacet
facet normal -0.822863042 -0.473742127 0.313790947
  outer loop
   vertex 80986.3828 19764.373 61399.7227
   vertex 80973.8438 19668.4082 61221.9688
   vertex 81045.0234 19670.9824 61412.5039
  endloop
 endfacet
facet normal -0.541282356 0.833567083 -0.1103599
  outer loop
   vertex 81131.1562 20003.6113 61629.9688
   vertex 81212.3906 20046.2988 61553.9414
   vertex 81082.8906 19953.3516 61487.0547
  endloop
 endfacet
facet normal -0.280775279 -0.888884902 0.362006783
  outer loop
   vertex 81134.1719 19693.2051 61607.332
   vertex 81140.2578 19766.7324 61792.6016
   vertex 81065.8594 19721.0605 61622.75
  endloop
 endfacet
facet normal -0.771503806 -0.597437203 0.218747914
  outer loop
   vertex 81065.8594 19721.0605 61622.75
   vertex 81018.9922 19753.9785 61547.375
   vertex 81045.0234 19670.9824 61412.5039
  endloop
 endfacet
facet normal -0.474959642 0.843135297 -0.25206396
  outer loop
   vertex 81212.3906 20046.2988 61553.9414
   vertex 81199.5938 19979.8594 61355.8203
   vertex 81082.8906 19953.3516 61487.0547
  endloop
 endfacet
facet normal -0.746349931 -0.483824819 0.457028776
  outer loop
   vertex 81065.8594 19721.0605 61622.75
   vertex 81140.2578 19766.7324 61792.6016
   vertex 81064.9453 19804.3633 61709.4414
  endloop
 endfacet
facet normal -0.89268142 0.340424567 0.295348853
  outer loop
   vertex 81064.9453 19804.3633 61709.4414
   vertex 81089.1328 19794.5801 61793.8438
   vertex 81122.9375 19853.8281 61827.7188
  endloop
 endfacet
facet normal -0.904876232 0.265675098 0.332589537
  outer loop
   vertex 81115.4375 19938.0918 61740.0039
   vertex 81064.9453 19804.3633 61709.4414
   vertex 81122.9375 19853.8281 61827.7188
  endloop
 endfacet
facet normal -0.890843391 0.287170112 0.35203892
  outer loop
   vertex 81115.4375 19938.0918 61740.0039
   vertex 81122.9375 19853.8281 61827.7188
   vertex 81165.6797 19931.3809 61872.6211
  endloop
 endfacet
facet normal -0.53870362 -0.222801715 0.812500954
  outer loop
   vertex 81188.2891 19727.6914 61837.7812
   vertex 81202.8984 19721.7227 61845.8281
   vertex 81215.5781 19772.7207 61868.2188
  endloop
 endfacet
facet normal -0.705624521 -0.050199274 0.706805527
  outer loop
   vertex 81188.2891 19727.6914 61837.7812
   vertex 81215.5781 19772.7207 61868.2188
   vertex 81140.2578 19766.7324 61792.6016
  endloop
 endfacet
facet normal 0.608899891 -0.75091213 0.25567928
  outer loop
   vertex 81216.3359 19742.8066 61778.5664
   vertex 81310.7109 19858.7188 61894.2266
   vertex 81215.5781 19772.7207 61868.2188
  endloop
 endfacet
facet normal 0.953951478 -0.282035977 0.102138698
  outer loop
   vertex 81202.8984 19721.7227 61845.8281
   vertex 81216.3359 19742.8066 61778.5664
   vertex 81215.5781 19772.7207 61868.2188
  endloop
 endfacet
facet normal -0.0556323566 -0.751848936 0.65698421
  outer loop
   vertex 81259.0625 19926.25 61967.1328
   vertex 81310.7109 19858.7188 61894.2266
   vertex 81418.9531 19990.793 62054.5352
  endloop
 endfacet
facet normal -0.431664079 -0.585097015 0.686533034
  outer loop
   vertex 81259.0625 19926.25 61967.1328
   vertex 81354.1953 19986.7715 62078.5273
   vertex 81343.2891 20013.5195 62094.4688
  endloop
 endfacet
facet normal 0.184296593 -0.921069801 0.343023688
  outer loop
   vertex 81259.0625 19926.25 61967.1328
   vertex 81418.9531 19990.793 62054.5352
   vertex 81354.1953 19986.7715 62078.5273
  endloop
 endfacet
facet normal 0.772163928 0.478842169 -0.417699724
  outer loop
   vertex 81491.375 20044.5586 62082.3945
   vertex 81468.5234 20091.834 62094.3398
   vertex 81505 20058.4355 62123.4844
  endloop
 endfacet
facet normal -0.340382993 0.379124641 0.860467255
  outer loop
   vertex 81468.5234 20091.834 62094.3398
   vertex 81486.0703 20044.3887 62122.1875
   vertex 81505 20058.4355 62123.4844
  endloop
 endfacet
facet normal -0.236127242 0.971339285 0.0272748806
  outer loop
   vertex 81402.8906 20095.1816 62074.9805
   vertex 81444.1484 20108.3965 61961.5352
   vertex 81330.2109 20081.791 61922.6406
  endloop
 endfacet
facet normal -0.528439164 -0.495663941 0.689252734
  outer loop
   vertex 81259.0625 19926.25 61967.1328
   vertex 81343.2891 20013.5195 62094.4688
   vertex 81308.4609 20011.0781 62066.0117
  endloop
 endfacet
facet normal -0.928553045 0.318468362 0.190701604
  outer loop
   vertex 81307.6719 20036.1777 62020.2461
   vertex 81259.0625 19926.25 61967.1328
   vertex 81308.4609 20011.0781 62066.0117
  endloop
 endfacet
facet normal -0.767823577 0.556040406 0.318223298
  outer loop
   vertex 81308.4609 20011.0781 62066.0117
   vertex 81350.7812 20052.3789 62095.9648
   vertex 81307.6719 20036.1777 62020.2461
  endloop
 endfacet
facet normal -0.633911967 0.0927191898 0.767827332
  outer loop
   vertex 81308.4609 20011.0781 62066.0117
   vertex 81343.2891 20013.5195 62094.4688
   vertex 81350.7812 20052.3789 62095.9648
  endloop
 endfacet
facet normal -0.206150323 0.189042434 0.960085928
  outer loop
   vertex 81505 20058.4355 62123.4844
   vertex 81486.0703 20044.3887 62122.1875
   vertex 81510.6797 20043.9375 62127.5625
  endloop
 endfacet
facet normal -0.317871064 -0.563971877 0.762163818
  outer loop
   vertex 81418.9531 19990.793 62054.5352
   vertex 81492.3125 20029.6113 62113.8594
   vertex 81486.0703 20044.3887 62122.1875
  endloop
 endfacet
facet normal -0.0717363358 -0.745946407 0.66213131
  outer loop
   vertex 81443.5859 20046.5 62119.9648
   vertex 81418.9531 19990.793 62054.5352
   vertex 81486.0703 20044.3887 62122.1875
  endloop
 endfacet
facet normal 0.330093533 -0.776447713 0.536812067
  outer loop
   vertex 81396.5234 20022.4629 62114.1367
   vertex 81418.9531 19990.793 62054.5352
   vertex 81443.5859 20046.5 62119.9648
  endloop
 endfacet
facet normal -0.601994991 0.76767236 0.219729722
  outer loop
   vertex 81307.6719 20036.1777 62020.2461
   vertex 81402.8906 20095.1816 62074.9805
   vertex 81330.2109 20081.791 61922.6406
  endloop
 endfacet
facet normal 0.24522236 -0.814835012 0.525271237
  outer loop
   vertex 81354.1953 19986.7715 62078.5273
   vertex 81418.9531 19990.793 62054.5352
   vertex 81396.5234 20022.4629 62114.1367
  endloop
 endfacet
facet normal 0.915648699 -0.357362241 -0.184064433
  outer loop
   vertex 81491.375 20044.5586 62082.3945
   vertex 81465.3125 20015.5117 62009.1211
   vertex 81475.9375 20069.6934 61956.7734
  endloop
 endfacet
facet normal 0.225539431 0.812314749 -0.537844539
  outer loop
   vertex 81468.5234 20091.834 62094.3398
   vertex 81449.7969 20118.9492 62127.4375
   vertex 81461.1406 20122.0742 62136.9141
  endloop
 endfacet
facet normal -0.202368543 -0.560890198 0.802775919
  outer loop
   vertex 81343.2891 20013.5195 62094.4688
   vertex 81354.1953 19986.7715 62078.5273
   vertex 81396.5234 20022.4629 62114.1367
  endloop
 endfacet
facet normal -0.335848093 -0.067119658 0.93952167
  outer loop
   vertex 81409.2734 20068.8027 62122.0039
   vertex 81343.2891 20013.5195 62094.4688
   vertex 81396.5234 20022.4629 62114.1367
  endloop
 endfacet
facet normal 0.519076288 -0.527671099 0.672400951
  outer loop
   vertex 81443.2734 20111.6523 62129.3828
   vertex 81409.2734 20068.8027 62122.0039
   vertex 81468.5234 20091.834 62094.3398
  endloop
 endfacet
facet normal 0.280952096 0.350436926 0.893453896
  outer loop
   vertex 81409.2734 20068.8027 62122.0039
   vertex 81443.5859 20046.5 62119.9648
   vertex 81468.5234 20091.834 62094.3398
  endloop
 endfacet
facet normal -0.0204325989 0.500437737 0.865531385
  outer loop
   vertex 81486.0703 20044.3887 62122.1875
   vertex 81468.5234 20091.834 62094.3398
   vertex 81443.5859 20046.5 62119.9648
  endloop
 endfacet
facet normal 0.89300853 0.243697673 -0.378348023
  outer loop
   vertex 81510.6797 20043.9375 62127.5625
   vertex 81491.375 20044.5586 62082.3945
   vertex 81505 20058.4355 62123.4844
  endloop
 endfacet
facet normal -0.0425774865 -0.155856028 0.986861706
  outer loop
   vertex 81409.2734 20068.8027 62122.0039
   vertex 81396.5234 20022.4629 62114.1367
   vertex 81443.5859 20046.5 62119.9648
  endloop
 endfacet
facet normal -0.584117234 0.651156783 0.484563559
  outer loop
   vertex 81443.2734 20111.6523 62129.3828
   vertex 81461.1406 20122.0742 62136.9141
   vertex 81449.7969 20118.9492 62127.4375
  endloop
 endfacet
facet normal 0.501443148 -0.74516958 0.439632833
  outer loop
   vertex 81513.2031 20115.3496 61991.6484
   vertex 81497.5 20113.9121 62007.125
   vertex 81475.9375 20069.6934 61956.7734
  endloop
 endfacet
facet normal 0.822484255 -0.552943766 0.133314788
  outer loop
   vertex 81497.5 20113.9121 62007.125
   vertex 81468.5234 20091.834 62094.3398
   vertex 81475.9375 20069.6934 61956.7734
  endloop
 endfacet
facet normal 0.897864997 0.439701408 -0.0223848596
  outer loop
   vertex 81491.375 20044.5586 62082.3945
   vertex 81475.9375 20069.6934 61956.7734
   vertex 81468.5234 20091.834 62094.3398
  endloop
 endfacet
facet normal 0.949677169 0.0470047593 -0.309683442
  outer loop
   vertex 81386.75 19971.8867 61668.4219
   vertex 81424.4375 20082.2656 61800.7539
   vertex 81475.9375 20069.6934 61956.7734
  endloop
 endfacet
facet normal 0.889737427 -0.438616425 -0.126423746
  outer loop
   vertex 81409.8359 19953.9062 61893.3008
   vertex 81386.75 19971.8867 61668.4219
   vertex 81475.9375 20069.6934 61956.7734
  endloop
 endfacet
facet normal 0.0556198359 0.987416804 0.148035303
  outer loop
   vertex 81501.5078 20116.6973 61987.0547
   vertex 81497.5 20113.9121 62007.125
   vertex 81513.2031 20115.3496 61991.6484
  endloop
 endfacet
facet normal 0.65542841 0.379887968 -0.652762413
  outer loop
   vertex 81286.7734 20015.916 61335.0742
   vertex 81317.4453 20031.6602 61375.0312
   vertex 81299.6094 19982.1816 61328.332
  endloop
 endfacet
facet normal 0.625650823 0.744637251 -0.232543334
  outer loop
   vertex 81360.0312 20021.1094 61455.8203
   vertex 81317.4453 20031.6602 61375.0312
   vertex 81315.4688 20072.7422 61501.2734
  endloop
 endfacet
facet normal -0.265872747 0.09060698 -0.959740639
  outer loop
   vertex 81199.5938 19979.8594 61355.8203
   vertex 81286.7734 20015.916 61335.0742
   vertex 81299.6094 19982.1816 61328.332
  endloop
 endfacet
facet normal 0.900179148 -0.433648169 0.0403329618
  outer loop
   vertex 81299.0312 19887.1504 61376.8281
   vertex 81348.9844 19989.6191 61363.8047
   vertex 81360.0312 20021.1094 61455.8203
  endloop
 endfacet
facet normal 0.930949211 -0.312255502 -0.189288318
  outer loop
   vertex 81299.0312 19887.1504 61376.8281
   vertex 81360.0312 20021.1094 61455.8203
   vertex 81386.75 19971.8867 61668.4219
  endloop
 endfacet
facet normal 0.960783541 0.00434690947 -0.27726534
  outer loop
   vertex 81386.75 19971.8867 61668.4219
   vertex 81373.875 20083.8594 61625.5859
   vertex 81424.4375 20082.2656 61800.7539
  endloop
 endfacet
facet normal 0.99051553 -0.111044399 -0.0809207559
  outer loop
   vertex 81348.9844 19989.6191 61363.8047
   vertex 81352.4609 20021.1699 61363.0703
   vertex 81360.0312 20021.1094 61455.8203
  endloop
 endfacet
facet normal 0.991512835 0.0727258101 -0.107764885
  outer loop
   vertex 81386.75 19971.8867 61668.4219
   vertex 81360.0312 20021.1094 61455.8203
   vertex 81373.875 20083.8594 61625.5859
  endloop
 endfacet
facet normal 0.904036283 0.0232112799 -0.426825017
  outer loop
   vertex 81373.875 20083.8594 61625.5859
   vertex 81315.4688 20072.7422 61501.2734
   vertex 81350.25 20111.1855 61577.0273
  endloop
 endfacet
facet normal 0.552777767 0.765971601 -0.328213602
  outer loop
   vertex 81373.875 20083.8594 61625.5859
   vertex 81360.0312 20021.1094 61455.8203
   vertex 81315.4688 20072.7422 61501.2734
  endloop
 endfacet
facet normal 0.279965311 0.9597525 -0.0222374778
  outer loop
   vertex 81360.0312 20021.1094 61455.8203
   vertex 81352.4609 20021.1699 61363.0703
   vertex 81317.4453 20031.6602 61375.0312
  endloop
 endfacet
facet normal 0.272742927 0.956454337 -0.103953905
  outer loop
   vertex 81373.875 20083.8594 61625.5859
   vertex 81316.5469 20100.3535 61626.9297
   vertex 81362.7109 20104.082 61782.3555
  endloop
 endfacet
facet normal 0.264722049 0.889722824 0.37190792
  outer loop
   vertex 81373.875 20083.8594 61625.5859
   vertex 81350.25 20111.1855 61577.0273
   vertex 81316.5469 20100.3535 61626.9297
  endloop
 endfacet
facet normal 0.0149169005 0.992536068 0.121035926
  outer loop
   vertex 81444.1484 20108.3965 61961.5352
   vertex 81402.8906 20095.1816 62074.9805
   vertex 81468.5234 20091.834 62094.3398
  endloop
 endfacet
facet normal -0.238392904 0.957367599 0.163144514
  outer loop
   vertex 81444.1484 20108.3965 61961.5352
   vertex 81468.5234 20091.834 62094.3398
   vertex 81497.5 20113.9121 62007.125
  endloop
 endfacet
facet normal 0.203300491 0.810667932 -0.549077749
  outer loop
   vertex 81449.7969 20118.9492 62127.4375
   vertex 81468.5234 20091.834 62094.3398
   vertex 81402.8906 20095.1816 62074.9805
  endloop
 endfacet
facet normal 0.330165833 0.377636552 -0.865090251
  outer loop
   vertex 81475.9375 20069.6934 61956.7734
   vertex 81444.1484 20108.3965 61961.5352
   vertex 81501.5078 20116.6973 61987.0547
  endloop
 endfacet
facet normal 0.746020555 0.636749566 -0.194944367
  outer loop
   vertex 81475.9375 20069.6934 61956.7734
   vertex 81424.4375 20082.2656 61800.7539
   vertex 81444.1484 20108.3965 61961.5352
  endloop
 endfacet
facet normal -0.386891216 0.917431951 0.0929184556
  outer loop
   vertex 81362.7109 20104.082 61782.3555
   vertex 81316.5469 20100.3535 61626.9297
   vertex 81238.0234 20055.7637 61740.25
  endloop
 endfacet
facet normal 0.139611393 0.461595237 -0.87603569
  outer loop
   vertex 81018.2109 19715.8457 61057.4688
   vertex 80989.3672 19738.8594 61065
   vertex 81014.1719 19756.1074 61078.0391
  endloop
 endfacet
facet normal -0.909439087 0.243628338 0.336995214
  outer loop
   vertex 81028.8516 19862.0078 61561.3359
   vertex 81115.4375 19938.0918 61740.0039
   vertex 81070.4453 19949.8848 61610.0508
  endloop
 endfacet
facet normal -0.512406886 0.71531415 -0.475147218
  outer loop
   vertex 81036.6484 19836.9121 61175.4531
   vertex 81014.1719 19756.1074 61078.0391
   vertex 80976.3281 19764.3223 61131.2266
  endloop
 endfacet
facet normal 0.509241521 0.0977519602 -0.8550542
  outer loop
   vertex 81036.6484 19836.9121 61175.4531
   vertex 80976.3281 19764.3223 61131.2266
   vertex 80976.9531 19816.0059 61137.5117
  endloop
 endfacet
facet normal -0.685575068 0.66436702 0.297662973
  outer loop
   vertex 81115.4375 19938.0918 61740.0039
   vertex 81131.1562 20003.6113 61629.9688
   vertex 81070.4453 19949.8848 61610.0508
  endloop
 endfacet
facet normal -0.906812847 0.26806888 0.325314522
  outer loop
   vertex 81064.9453 19804.3633 61709.4414
   vertex 81115.4375 19938.0918 61740.0039
   vertex 81028.8516 19862.0078 61561.3359
  endloop
 endfacet
facet normal -0.368019223 0.888475716 -0.274176389
  outer loop
   vertex 81212.3906 20046.2988 61553.9414
   vertex 81315.4688 20072.7422 61501.2734
   vertex 81199.5938 19979.8594 61355.8203
  endloop
 endfacet
facet normal -0.393557101 0.917378724 -0.0594060235
  outer loop
   vertex 81317.4453 20031.6602 61375.0312
   vertex 81286.7734 20015.916 61335.0742
   vertex 81199.5938 19979.8594 61355.8203
  endloop
 endfacet
facet normal -0.343659312 0.891406298 -0.295454055
  outer loop
   vertex 81315.4688 20072.7422 61501.2734
   vertex 81317.4453 20031.6602 61375.0312
   vertex 81199.5938 19979.8594 61355.8203
  endloop
 endfacet
facet normal -0.202003345 0.709558547 -0.675071359
  outer loop
   vertex 81189.7578 19866.8184 61239.9492
   vertex 81199.5938 19979.8594 61355.8203
   vertex 81299.6094 19982.1816 61328.332
  endloop
 endfacet
facet normal 0.156603172 0.700284898 -0.696474373
  outer loop
   vertex 81189.7578 19866.8184 61239.9492
   vertex 81036.6484 19836.9121 61175.4531
   vertex 81199.5938 19979.8594 61355.8203
  endloop
 endfacet
facet normal 0.186658576 0.644136071 -0.74178654
  outer loop
   vertex 81189.7578 19866.8184 61239.9492
   vertex 81078.8125 19734.6133 61097.2305
   vertex 81036.6484 19836.9121 61175.4531
  endloop
 endfacet
facet normal -0.976698637 0.1296058 0.171061814
  outer loop
   vertex 80986.3828 19764.373 61399.7227
   vertex 80999.125 19859.5371 61400.3555
   vertex 80966.25 19802.9727 61255.5078
  endloop
 endfacet
facet normal -0.860478818 0.456655741 0.225924179
  outer loop
   vertex 80951.1484 19814.7754 61174.1523
   vertex 80966.25 19802.9727 61255.5078
   vertex 80972.8125 19841.6621 61202.3164
  endloop
 endfacet
facet normal -0.97545898 0.129392669 0.178149804
  outer loop
   vertex 80999.125 19859.5371 61400.3555
   vertex 80986.3828 19764.373 61399.7227
   vertex 81028.8516 19862.0078 61561.3359
  endloop
 endfacet
facet normal -0.973773897 0.0604999289 0.219326705
  outer loop
   vertex 80986.3828 19764.373 61399.7227
   vertex 81018.9922 19753.9785 61547.375
   vertex 81028.8516 19862.0078 61561.3359
  endloop
 endfacet
facet normal 0.395336002 0.82094413 -0.41201967
  outer loop
   vertex 81078.8125 19734.6133 61097.2305
   vertex 81031.6484 19735.5195 61053.7852
   vertex 81014.1719 19756.1074 61078.0391
  endloop
 endfacet
facet normal -0.653745532 0.75538224 -0.0448831394
  outer loop
   vertex 81070.4453 19949.8848 61610.0508
   vertex 81131.1562 20003.6113 61629.9688
   vertex 81082.8906 19953.3516 61487.0547
  endloop
 endfacet
facet normal -0.452594638 0.891554952 0.016965108
  outer loop
   vertex 81212.3906 20046.2988 61553.9414
   vertex 81131.1562 20003.6113 61629.9688
   vertex 81238.0234 20055.7637 61740.25
  endloop
 endfacet
facet normal -0.65787214 0.684680045 0.313715607
  outer loop
   vertex 81115.4375 19938.0918 61740.0039
   vertex 81238.0234 20055.7637 61740.25
   vertex 81131.1562 20003.6113 61629.9688
  endloop
 endfacet
facet normal -0.634842038 0.300093889 -0.711982608
  outer loop
   vertex 81031.6484 19735.5195 61053.7852
   vertex 81018.2109 19715.8457 61057.4688
   vertex 81014.1719 19756.1074 61078.0391
  endloop
 endfacet
facet normal -0.884155691 0.460885644 -0.0765055269
  outer loop
   vertex 81082.8906 19953.3516 61487.0547
   vertex 81028.8516 19862.0078 61561.3359
   vertex 81070.4453 19949.8848 61610.0508
  endloop
 endfacet
facet normal -0.844011486 0.477906674 0.243412942
  outer loop
   vertex 80966.25 19802.9727 61255.5078
   vertex 81029.25 19888.8086 61305.4375
   vertex 80972.8125 19841.6621 61202.3164
  endloop
 endfacet
facet normal -0.787469208 0.613348544 -0.0607935488
  outer loop
   vertex 80966.25 19802.9727 61255.5078
   vertex 80999.125 19859.5371 61400.3555
   vertex 81029.25 19888.8086 61305.4375
  endloop
 endfacet
facet normal -0.0750171766 0.936039448 -0.343805999
  outer loop
   vertex 81036.6484 19836.9121 61175.4531
   vertex 80966.5156 19822.5488 61151.6484
   vertex 80972.8125 19841.6621 61202.3164
  endloop
 endfacet
facet normal -0.41779092 0.887988329 -0.192165092
  outer loop
   vertex 81199.5938 19979.8594 61355.8203
   vertex 81029.25 19888.8086 61305.4375
   vertex 81082.8906 19953.3516 61487.0547
  endloop
 endfacet
facet normal -0.352940917 0.861855567 -0.364194602
  outer loop
   vertex 81199.5938 19979.8594 61355.8203
   vertex 81036.6484 19836.9121 61175.4531
   vertex 81029.25 19888.8086 61305.4375
  endloop
 endfacet
facet normal -0.0885378718 0.923320234 -0.373685449
  outer loop
   vertex 80972.8125 19841.6621 61202.3164
   vertex 81029.25 19888.8086 61305.4375
   vertex 81036.6484 19836.9121 61175.4531
  endloop
 endfacet
facet normal 0.377719402 0.905482233 -0.193468288
  outer loop
   vertex 81444.1484 20108.3965 61961.5352
   vertex 81424.4375 20082.2656 61800.7539
   vertex 81362.7109 20104.082 61782.3555
  endloop
 endfacet
facet normal -0.631887257 0.747850716 0.203562662
  outer loop
   vertex 81226.5859 20002.9434 61890.6445
   vertex 81307.6719 20036.1777 62020.2461
   vertex 81330.2109 20081.791 61922.6406
  endloop
 endfacet
facet normal -0.632463694 0.744608819 0.213418335
  outer loop
   vertex 81238.0234 20055.7637 61740.25
   vertex 81226.5859 20002.9434 61890.6445
   vertex 81330.2109 20081.791 61922.6406
  endloop
 endfacet
facet normal -0.471627593 0.881568909 0.0200906899
  outer loop
   vertex 81238.0234 20055.7637 61740.25
   vertex 81316.5469 20100.3535 61626.9297
   vertex 81212.3906 20046.2988 61553.9414
  endloop
 endfacet
facet normal -0.337795854 0.919886768 -0.199254349
  outer loop
   vertex 81212.3906 20046.2988 61553.9414
   vertex 81316.5469 20100.3535 61626.9297
   vertex 81315.4688 20072.7422 61501.2734
  endloop
 endfacet
facet normal 0.356682926 0.929434776 -0.0944896042
  outer loop
   vertex 81424.4375 20082.2656 61800.7539
   vertex 81373.875 20083.8594 61625.5859
   vertex 81362.7109 20104.082 61782.3555
  endloop
 endfacet
endsolid MATLAB_1
