solid MATLAB_1
facet normal -0.96264571 0.218709081 0.15962331
  outer loop
   vertex 80063.6016 19511.6973 62078.0938
   vertex 80070.4062 19517.0312 62111.7969
   vertex 80069.9609 19533.9121 62085.9961
  endloop
 endfacet
facet normal -0.813611031 0.570542932 0.111883171
  outer loop
   vertex 80073.0859 19488.4727 62175.9922
   vertex 80120.3438 19552.8105 62191.6094
   vertex 80065.9297 19484.5762 62143.8242
  endloop
 endfacet
facet normal 0.135768592 -0.989874423 0.0414183214
  outer loop
   vertex 80064.2812 19457.082 62140.8555
   vertex 80087.3047 19460.2129 62140.207
   vertex 80081.9141 19460.8027 62172.0117
  endloop
 endfacet
facet normal 0.458181649 0.2487064 -0.85335499
  outer loop
   vertex 80134.4609 19547.1367 62107.082
   vertex 80150.125 19516.1211 62106.4492
   vertex 80116.3359 19488.3945 62080.2266
  endloop
 endfacet
facet normal -0.852092087 0.431162328 0.29671216
  outer loop
   vertex 80070.4062 19517.0312 62111.7969
   vertex 80096.2578 19557.1992 62127.6875
   vertex 80069.9609 19533.9121 62085.9961
  endloop
 endfacet
facet normal 0.602638245 -0.331290662 -0.725998342
  outer loop
   vertex 80096.5625 19544.0234 62077.0391
   vertex 80134.4609 19547.1367 62107.082
   vertex 80082.4297 19525.1113 62073.9375
  endloop
 endfacet
facet normal -0.228300974 0.312115461 -0.922205269
  outer loop
   vertex 80318.6953 19752.2812 62309.9492
   vertex 80361.7969 19786.0723 62310.7148
   vertex 80358.2109 19762.1875 62303.5234
  endloop
 endfacet
facet normal 0.135651305 -0.783690214 0.606158733
  outer loop
   vertex 80279.9609 19635.2422 62307.5273
   vertex 80324.5078 19709 62392.918
   vertex 80200.1641 19593.4668 62271.375
  endloop
 endfacet
facet normal 0.0248437263 -0.680896699 0.731957972
  outer loop
   vertex 80279.9609 19635.2422 62307.5273
   vertex 80200.1641 19593.4668 62271.375
   vertex 80140.2734 19503.8555 62190.0508
  endloop
 endfacet
facet normal 0.613569021 -0.779874504 -0.123809524
  outer loop
   vertex 80081.9141 19460.8027 62172.0117
   vertex 80140.2734 19503.8555 62190.0508
   vertex 80097.1719 19470.0645 62189.2852
  endloop
 endfacet
facet normal -0.746440411 0.297634572 0.595180988
  outer loop
   vertex 80100.7578 19493.9492 62196.4766
   vertex 80200.1641 19593.4668 62271.375
   vertex 80120.3438 19552.8105 62191.6094
  endloop
 endfacet
facet normal 0.860430419 -0.185406148 -0.474640936
  outer loop
   vertex 80150.125 19516.1211 62106.4492
   vertex 80201.1797 19563.7441 62180.4062
   vertex 80145.8047 19495.002 62106.875
  endloop
 endfacet
facet normal -0.237773508 -0.93945837 0.246742323
  outer loop
   vertex 80063.5391 19464.1621 62167.0938
   vertex 80064.2812 19457.082 62140.8555
   vertex 80081.9141 19460.8027 62172.0117
  endloop
 endfacet
facet normal -0.585213184 -0.066014789 0.808187842
  outer loop
   vertex 80063.5391 19464.1621 62167.0938
   vertex 80100.7578 19493.9492 62196.4766
   vertex 80073.0859 19488.4727 62175.9922
  endloop
 endfacet
facet normal -0.718739808 -0.0992482156 0.688159049
  outer loop
   vertex 80100.7578 19493.9492 62196.4766
   vertex 80081.9141 19460.8027 62172.0117
   vertex 80097.1719 19470.0645 62189.2852
  endloop
 endfacet
facet normal 0.56250596 -0.820311487 0.103325419
  outer loop
   vertex 80389.0078 19722.2246 62414.0039
   vertex 80358.4453 19699.668 62401.3008
   vertex 80362.7109 19698.9375 62372.3125
  endloop
 endfacet
facet normal 0.228300974 -0.312115461 0.922205269
  outer loop
   vertex 80140.2734 19503.8555 62190.0508
   vertex 80100.7578 19493.9492 62196.4766
   vertex 80097.1719 19470.0645 62189.2852
  endloop
 endfacet
facet normal 0.477008849 -0.846975088 0.234724954
  outer loop
   vertex 80140.2734 19503.8555 62190.0508
   vertex 80087.3047 19460.2129 62140.207
   vertex 80108.9297 19467.3535 62122.0312
  endloop
 endfacet
facet normal 0.46979931 -0.849666119 0.239491269
  outer loop
   vertex 80141.7344 19487.9434 62130.7266
   vertex 80140.2734 19503.8555 62190.0508
   vertex 80108.9297 19467.3535 62122.0312
  endloop
 endfacet
facet normal -0.950502694 -0.141743109 -0.276502252
  outer loop
   vertex 80065.9297 19484.5762 62143.8242
   vertex 80070.4062 19517.0312 62111.7969
   vertex 80081.9219 19480.5176 62090.918
  endloop
 endfacet
facet normal -0.95153439 0.0886387005 -0.294492006
  outer loop
   vertex 80065.9297 19484.5762 62143.8242
   vertex 80081.9219 19480.5176 62090.918
   vertex 80064.2812 19457.082 62140.8555
  endloop
 endfacet
facet normal -0.747610152 0.116831809 0.653780878
  outer loop
   vertex 80200.1641 19593.4668 62271.375
   vertex 80324.5078 19709 62392.918
   vertex 80257.7891 19692.3926 62319.5938
  endloop
 endfacet
facet normal -0.726899326 0.091697976 0.680594444
  outer loop
   vertex 80200.1641 19593.4668 62271.375
   vertex 80257.7891 19692.3926 62319.5938
   vertex 80120.3438 19552.8105 62191.6094
  endloop
 endfacet
facet normal 0.5271945 -0.849446595 0.0225041416
  outer loop
   vertex 80114.0547 19469.6875 62090.1211
   vertex 80141.7344 19487.9434 62130.7266
   vertex 80108.9297 19467.3535 62122.0312
  endloop
 endfacet
facet normal 0.284749269 -0.741581619 0.607432723
  outer loop
   vertex 80140.2734 19503.8555 62190.0508
   vertex 80200.1641 19593.4668 62271.375
   vertex 80100.7578 19493.9492 62196.4766
  endloop
 endfacet
facet normal 0.567425191 -0.815856278 0.111387663
  outer loop
   vertex 80140.2734 19503.8555 62190.0508
   vertex 80081.9141 19460.8027 62172.0117
   vertex 80087.3047 19460.2129 62140.207
  endloop
 endfacet
facet normal -0.135651305 0.783690214 -0.606158733
  outer loop
   vertex 80134.4609 19547.1367 62107.082
   vertex 80179.0078 19620.8945 62192.4727
   vertex 80258.8047 19662.6699 62228.625
  endloop
 endfacet
facet normal -0.0248437263 0.680896699 -0.731957972
  outer loop
   vertex 80318.6953 19752.2812 62309.9492
   vertex 80258.8047 19662.6699 62228.625
   vertex 80179.0078 19620.8945 62192.4727
  endloop
 endfacet
facet normal -0.319752604 -0.939857066 -0.12011227
  outer loop
   vertex 80114.0547 19469.6875 62090.1211
   vertex 80108.9297 19467.3535 62122.0312
   vertex 80081.9219 19480.5176 62090.918
  endloop
 endfacet
facet normal -0.0136077795 -0.925050676 -0.37959981
  outer loop
   vertex 80087.3047 19460.2129 62140.207
   vertex 80081.9219 19480.5176 62090.918
   vertex 80108.9297 19467.3535 62122.0312
  endloop
 endfacet
facet normal 0.113337412 -0.914236665 -0.389006346
  outer loop
   vertex 80064.2812 19457.082 62140.8555
   vertex 80081.9219 19480.5176 62090.918
   vertex 80087.3047 19460.2129 62140.207
  endloop
 endfacet
facet normal -0.681462228 0.15370436 0.715530694
  outer loop
   vertex 80313.1641 19761.1348 62393.125
   vertex 80308.8438 19740.0156 62393.5508
   vertex 80342.6328 19767.7422 62419.7734
  endloop
 endfacet
facet normal -0.876720607 -0.415324956 0.242623582
  outer loop
   vertex 80063.6016 19511.6973 62078.0938
   vertex 80081.9219 19480.5176 62090.918
   vertex 80070.4062 19517.0312 62111.7969
  endloop
 endfacet
facet normal -0.996866345 0.0645154044 -0.0457740389
  outer loop
   vertex 80064.2812 19457.082 62140.8555
   vertex 80063.5391 19464.1621 62167.0938
   vertex 80065.9297 19484.5762 62143.8242
  endloop
 endfacet
facet normal -0.607077777 0.264021397 0.749499321
  outer loop
   vertex 80100.7578 19493.9492 62196.4766
   vertex 80120.3438 19552.8105 62191.6094
   vertex 80073.0859 19488.4727 62175.9922
  endloop
 endfacet
facet normal -0.113337412 0.914236665 0.389006346
  outer loop
   vertex 80371.6641 19795.9238 62359.793
   vertex 80377.0469 19775.6191 62409.082
   vertex 80394.6875 19799.0547 62359.1445
  endloop
 endfacet
facet normal 0.0136077795 0.925050676 0.37959981
  outer loop
   vertex 80350.0391 19788.7832 62377.9688
   vertex 80377.0469 19775.6191 62409.082
   vertex 80371.6641 19795.9238 62359.793
  endloop
 endfacet
facet normal 0.726899326 -0.091697976 -0.680594444
  outer loop
   vertex 80258.8047 19662.6699 62228.625
   vertex 80338.625 19703.3262 62308.3906
   vertex 80201.1797 19563.7441 62180.4062
  endloop
 endfacet
facet normal 0.747610152 -0.116831809 -0.653780878
  outer loop
   vertex 80134.4609 19547.1367 62107.082
   vertex 80258.8047 19662.6699 62228.625
   vertex 80201.1797 19563.7441 62180.4062
  endloop
 endfacet
facet normal -0.306667298 -0.446191609 0.840754569
  outer loop
   vertex 80081.9141 19460.8027 62172.0117
   vertex 80100.7578 19493.9492 62196.4766
   vertex 80063.5391 19464.1621 62167.0938
  endloop
 endfacet
facet normal -0.936777711 0.30505228 0.171436936
  outer loop
   vertex 80073.0859 19488.4727 62175.9922
   vertex 80065.9297 19484.5762 62143.8242
   vertex 80063.5391 19464.1621 62167.0938
  endloop
 endfacet
facet normal 0.319752604 0.939857066 0.12011227
  outer loop
   vertex 80377.0469 19775.6191 62409.082
   vertex 80350.0391 19788.7832 62377.9688
   vertex 80344.9141 19786.4492 62409.8789
  endloop
 endfacet
facet normal -0.721180856 0.61742866 0.314133793
  outer loop
   vertex 80096.2578 19557.1992 62127.6875
   vertex 80120.3438 19552.8105 62191.6094
   vertex 80179.0078 19620.8945 62192.4727
  endloop
 endfacet
facet normal 0.306667298 0.446191609 -0.840754569
  outer loop
   vertex 80395.4297 19791.9746 62332.9062
   vertex 80358.2109 19762.1875 62303.5234
   vertex 80377.0547 19795.334 62327.9883
  endloop
 endfacet
facet normal 0.607077777 -0.264021397 -0.749499321
  outer loop
   vertex 80358.2109 19762.1875 62303.5234
   vertex 80385.8828 19767.6641 62324.0078
   vertex 80338.625 19703.3262 62308.3906
  endloop
 endfacet
facet normal 0.359857887 -0.532693863 0.765989244
  outer loop
   vertex 80358.4219 19788.5527 62426.8281
   vertex 80342.6328 19767.7422 62419.7734
   vertex 80377.0469 19775.6191 62409.082
  endloop
 endfacet
facet normal -0.0476327389 0.355916053 0.933303237
  outer loop
   vertex 80395.3672 19744.4395 62421.9062
   vertex 80377.0469 19775.6191 62409.082
   vertex 80376.5391 19731.0254 62426.0625
  endloop
 endfacet
facet normal -0.698314786 0.715140224 0.0305112824
  outer loop
   vertex 80257.7891 19692.3926 62319.5938
   vertex 80318.6953 19752.2812 62309.9492
   vertex 80179.0078 19620.8945 62192.4727
  endloop
 endfacet
facet normal -0.754211545 0.648567498 0.102592215
  outer loop
   vertex 80120.3438 19552.8105 62191.6094
   vertex 80257.7891 19692.3926 62319.5938
   vertex 80179.0078 19620.8945 62192.4727
  endloop
 endfacet
facet normal -0.660107911 0.412592113 0.627714336
  outer loop
   vertex 80342.6328 19767.7422 62419.7734
   vertex 80344.9141 19786.4492 62409.8789
   vertex 80313.1641 19761.1348 62393.125
  endloop
 endfacet
facet normal -0.860430419 0.185406148 0.474640936
  outer loop
   vertex 80257.7891 19692.3926 62319.5938
   vertex 80308.8438 19740.0156 62393.5508
   vertex 80313.1641 19761.1348 62393.125
  endloop
 endfacet
facet normal 0.343081564 0.786000371 -0.514294147
  outer loop
   vertex 80100.5234 19556.4688 62098.6992
   vertex 80134.4609 19547.1367 62107.082
   vertex 80096.5625 19544.0234 62077.0391
  endloop
 endfacet
facet normal -0.466270626 0.411973774 -0.782859683
  outer loop
   vertex 80063.6016 19511.6973 62078.0938
   vertex 80069.9609 19533.9121 62085.9961
   vertex 80082.4297 19525.1113 62073.9375
  endloop
 endfacet
facet normal -0.32387647 -0.436544836 -0.839364409
  outer loop
   vertex 80081.9219 19480.5176 62090.918
   vertex 80093.0781 19509.1426 62071.7266
   vertex 80101.3516 19500.2773 62073.1445
  endloop
 endfacet
facet normal -0.583084881 -0.283293068 -0.761417806
  outer loop
   vertex 80082.4297 19525.1113 62073.9375
   vertex 80093.0781 19509.1426 62071.7266
   vertex 80081.9219 19480.5176 62090.918
  endloop
 endfacet
facet normal -0.837071776 0.438397676 0.327289253
  outer loop
   vertex 80065.9297 19484.5762 62143.8242
   vertex 80120.3438 19552.8105 62191.6094
   vertex 80070.4062 19517.0312 62111.7969
  endloop
 endfacet
facet normal -0.845169842 0.407047421 0.346410662
  outer loop
   vertex 80096.2578 19557.1992 62127.6875
   vertex 80070.4062 19517.0312 62111.7969
   vertex 80120.3438 19552.8105 62191.6094
  endloop
 endfacet
facet normal -0.766644835 0.607179999 -0.208777755
  outer loop
   vertex 80096.5625 19544.0234 62077.0391
   vertex 80082.4297 19525.1113 62073.9375
   vertex 80100.5234 19556.4688 62098.6992
  endloop
 endfacet
facet normal -0.284749269 0.741581619 -0.607432723
  outer loop
   vertex 80318.6953 19752.2812 62309.9492
   vertex 80358.2109 19762.1875 62303.5234
   vertex 80258.8047 19662.6699 62228.625
  endloop
 endfacet
facet normal -0.56250596 0.820311487 -0.103325419
  outer loop
   vertex 80069.9609 19533.9121 62085.9961
   vertex 80096.2578 19557.1992 62127.6875
   vertex 80100.5234 19556.4688 62098.6992
  endloop
 endfacet
facet normal -0.205768362 0.676853359 -0.706773579
  outer loop
   vertex 80069.9609 19533.9121 62085.9961
   vertex 80100.5234 19556.4688 62098.6992
   vertex 80082.4297 19525.1113 62073.9375
  endloop
 endfacet
facet normal 0.344195962 0.614225507 -0.710109949
  outer loop
   vertex 80100.5234 19556.4688 62098.6992
   vertex 80179.0078 19620.8945 62192.4727
   vertex 80134.4609 19547.1367 62107.082
  endloop
 endfacet
facet normal 0.813611031 -0.570542932 -0.111883171
  outer loop
   vertex 80393.0391 19771.5605 62356.1758
   vertex 80338.625 19703.3262 62308.3906
   vertex 80385.8828 19767.6641 62324.0078
  endloop
 endfacet
facet normal -0.106655881 -0.60493201 -0.789101839
  outer loop
   vertex 80081.9219 19480.5176 62090.918
   vertex 80101.3516 19500.2773 62073.1445
   vertex 80116.3359 19488.3945 62080.2266
  endloop
 endfacet
facet normal 0.466270626 -0.411973774 0.782859683
  outer loop
   vertex 80395.3672 19744.4395 62421.9062
   vertex 80376.5391 19731.0254 62426.0625
   vertex 80389.0078 19722.2246 62414.0039
  endloop
 endfacet
facet normal -0.381702036 -0.371670395 0.846265137
  outer loop
   vertex 80365.8906 19746.9941 62428.2734
   vertex 80324.5078 19709 62392.918
   vertex 80376.5391 19731.0254 62426.0625
  endloop
 endfacet
facet normal -0.454200476 -0.289300531 0.842619181
  outer loop
   vertex 80365.8906 19746.9941 62428.2734
   vertex 80357.6172 19755.8594 62426.8555
   vertex 80324.5078 19709 62392.918
  endloop
 endfacet
facet normal 0.936777711 -0.30505228 -0.171436936
  outer loop
   vertex 80385.8828 19767.6641 62324.0078
   vertex 80395.4297 19791.9746 62332.9062
   vertex 80393.0391 19771.5605 62356.1758
  endloop
 endfacet
facet normal 0.237773508 0.93945837 -0.246742323
  outer loop
   vertex 80377.0547 19795.334 62327.9883
   vertex 80394.6875 19799.0547 62359.1445
   vertex 80395.4297 19791.9746 62332.9062
  endloop
 endfacet
facet normal 0.106655881 0.60493201 0.789101839
  outer loop
   vertex 80357.6172 19755.8594 62426.8555
   vertex 80377.0469 19775.6191 62409.082
   vertex 80342.6328 19767.7422 62419.7734
  endloop
 endfacet
facet normal -0.55518508 0.825401962 -0.102377385
  outer loop
   vertex 80096.2578 19557.1992 62127.6875
   vertex 80179.0078 19620.8945 62192.4727
   vertex 80100.5234 19556.4688 62098.6992
  endloop
 endfacet
facet normal 0.585213184 0.066014789 -0.808187842
  outer loop
   vertex 80395.4297 19791.9746 62332.9062
   vertex 80385.8828 19767.6641 62324.0078
   vertex 80358.2109 19762.1875 62303.5234
  endloop
 endfacet
facet normal 0.746440411 -0.297634572 -0.595180988
  outer loop
   vertex 80358.2109 19762.1875 62303.5234
   vertex 80338.625 19703.3262 62308.3906
   vertex 80258.8047 19662.6699 62228.625
  endloop
 endfacet
facet normal 0.718739808 0.0992482156 -0.688159049
  outer loop
   vertex 80358.2109 19762.1875 62303.5234
   vertex 80361.7969 19786.0723 62310.7148
   vertex 80377.0547 19795.334 62327.9883
  endloop
 endfacet
facet normal -0.613569021 0.779874504 0.123809524
  outer loop
   vertex 80377.0547 19795.334 62327.9883
   vertex 80361.7969 19786.0723 62310.7148
   vertex 80318.6953 19752.2812 62309.9492
  endloop
 endfacet
facet normal -0.74579978 0.380332649 0.546927571
  outer loop
   vertex 80342.6328 19767.7422 62419.7734
   vertex 80358.4219 19788.5527 62426.8281
   vertex 80344.9141 19786.4492 62409.8789
  endloop
 endfacet
facet normal -0.702828467 0.682545662 -0.200408548
  outer loop
   vertex 80257.7891 19692.3926 62319.5938
   vertex 80317.2344 19768.1934 62369.2734
   vertex 80318.6953 19752.2812 62309.9492
  endloop
 endfacet
facet normal 0.55518508 -0.825401962 0.102377385
  outer loop
   vertex 80362.7109 19698.9375 62372.3125
   vertex 80358.4453 19699.668 62401.3008
   vertex 80279.9609 19635.2422 62307.5273
  endloop
 endfacet
facet normal -0.135768592 0.989874423 -0.0414183214
  outer loop
   vertex 80377.0547 19795.334 62327.9883
   vertex 80371.6641 19795.9238 62359.793
   vertex 80394.6875 19799.0547 62359.1445
  endloop
 endfacet
facet normal -0.46979931 0.849666119 -0.239491269
  outer loop
   vertex 80350.0391 19788.7832 62377.9688
   vertex 80318.6953 19752.2812 62309.9492
   vertex 80317.2344 19768.1934 62369.2734
  endloop
 endfacet
facet normal -0.477008849 0.846975088 -0.234724954
  outer loop
   vertex 80371.6641 19795.9238 62359.793
   vertex 80318.6953 19752.2812 62309.9492
   vertex 80350.0391 19788.7832 62377.9688
  endloop
 endfacet
facet normal 0.837071776 -0.438397676 -0.327289253
  outer loop
   vertex 80388.5625 19739.1055 62388.2031
   vertex 80338.625 19703.3262 62308.3906
   vertex 80393.0391 19771.5605 62356.1758
  endloop
 endfacet
facet normal 0.845169842 -0.407047421 -0.346410662
  outer loop
   vertex 80388.5625 19739.1055 62388.2031
   vertex 80362.7109 19698.9375 62372.3125
   vertex 80338.625 19703.3262 62308.3906
  endloop
 endfacet
facet normal -0.567425191 0.815856278 -0.111387663
  outer loop
   vertex 80377.0547 19795.334 62327.9883
   vertex 80318.6953 19752.2812 62309.9492
   vertex 80371.6641 19795.9238 62359.793
  endloop
 endfacet
facet normal -0.5271945 0.849446595 -0.0225041416
  outer loop
   vertex 80350.0391 19788.7832 62377.9688
   vertex 80317.2344 19768.1934 62369.2734
   vertex 80344.9141 19786.4492 62409.8789
  endloop
 endfacet
facet normal -0.799097121 0.599798858 0.0410509072
  outer loop
   vertex 80313.1641 19761.1348 62393.125
   vertex 80317.2344 19768.1934 62369.2734
   vertex 80257.7891 19692.3926 62319.5938
  endloop
 endfacet
facet normal -0.654338956 0.748204291 0.109685376
  outer loop
   vertex 80344.9141 19786.4492 62409.8789
   vertex 80317.2344 19768.1934 62369.2734
   vertex 80313.1641 19761.1348 62393.125
  endloop
 endfacet
facet normal 0.292271614 0.892456472 -0.34365496
  outer loop
   vertex 80358.4219 19788.5527 62426.8281
   vertex 80377.0469 19775.6191 62409.082
   vertex 80344.9141 19786.4492 62409.8789
  endloop
 endfacet
facet normal 0.205768362 -0.676853359 0.706773579
  outer loop
   vertex 80389.0078 19722.2246 62414.0039
   vertex 80376.5391 19731.0254 62426.0625
   vertex 80358.4453 19699.668 62401.3008
  endloop
 endfacet
facet normal 0.996866345 -0.0645154044 0.0457740389
  outer loop
   vertex 80394.6875 19799.0547 62359.1445
   vertex 80393.0391 19771.5605 62356.1758
   vertex 80395.4297 19791.9746 62332.9062
  endloop
 endfacet
facet normal -0.458181649 -0.2487064 0.85335499
  outer loop
   vertex 80342.6328 19767.7422 62419.7734
   vertex 80308.8438 19740.0156 62393.5508
   vertex 80324.5078 19709 62392.918
  endloop
 endfacet
facet normal 0.583084881 0.283293068 0.761417806
  outer loop
   vertex 80377.0469 19775.6191 62409.082
   vertex 80365.8906 19746.9941 62428.2734
   vertex 80376.5391 19731.0254 62426.0625
  endloop
 endfacet
facet normal 0.32387647 0.436544836 0.839364409
  outer loop
   vertex 80377.0469 19775.6191 62409.082
   vertex 80357.6172 19755.8594 62426.8555
   vertex 80365.8906 19746.9941 62428.2734
  endloop
 endfacet
facet normal -0.654379427 -0.344090372 0.67334193
  outer loop
   vertex 80308.8438 19740.0156 62393.5508
   vertex 80257.7891 19692.3926 62319.5938
   vertex 80324.5078 19709 62392.918
  endloop
 endfacet
facet normal -0.545573592 -0.203305528 0.81302911
  outer loop
   vertex 80357.6172 19755.8594 62426.8555
   vertex 80342.6328 19767.7422 62419.7734
   vertex 80324.5078 19709 62392.918
  endloop
 endfacet
facet normal 0.96264571 -0.218709081 -0.15962331
  outer loop
   vertex 80389.0078 19722.2246 62414.0039
   vertex 80388.5625 19739.1055 62388.2031
   vertex 80395.3672 19744.4395 62421.9062
  endloop
 endfacet
facet normal 0.950502694 0.141743109 0.276502252
  outer loop
   vertex 80393.0391 19771.5605 62356.1758
   vertex 80377.0469 19775.6191 62409.082
   vertex 80388.5625 19739.1055 62388.2031
  endloop
 endfacet
facet normal 0.95153439 -0.0886387005 0.294492006
  outer loop
   vertex 80394.6875 19799.0547 62359.1445
   vertex 80377.0469 19775.6191 62409.082
   vertex 80393.0391 19771.5605 62356.1758
  endloop
 endfacet
facet normal 0.876720607 0.415324956 -0.242623582
  outer loop
   vertex 80377.0469 19775.6191 62409.082
   vertex 80395.3672 19744.4395 62421.9062
   vertex 80388.5625 19739.1055 62388.2031
  endloop
 endfacet
facet normal 0.852092087 -0.431162328 -0.29671216
  outer loop
   vertex 80389.0078 19722.2246 62414.0039
   vertex 80362.7109 19698.9375 62372.3125
   vertex 80388.5625 19739.1055 62388.2031
  endloop
 endfacet
facet normal 0.698314786 -0.715140224 -0.0305112824
  outer loop
   vertex 80279.9609 19635.2422 62307.5273
   vertex 80140.2734 19503.8555 62190.0508
   vertex 80201.1797 19563.7441 62180.4062
  endloop
 endfacet
facet normal 0.754211545 -0.648567498 -0.102592215
  outer loop
   vertex 80338.625 19703.3262 62308.3906
   vertex 80279.9609 19635.2422 62307.5273
   vertex 80201.1797 19563.7441 62180.4062
  endloop
 endfacet
facet normal -0.602638245 0.331290662 0.725998342
  outer loop
   vertex 80376.5391 19731.0254 62426.0625
   vertex 80324.5078 19709 62392.918
   vertex 80362.4062 19712.1133 62422.9609
  endloop
 endfacet
facet normal 0.766644835 -0.607179999 0.208777755
  outer loop
   vertex 80362.4062 19712.1133 62422.9609
   vertex 80358.4453 19699.668 62401.3008
   vertex 80376.5391 19731.0254 62426.0625
  endloop
 endfacet
facet normal -0.344195962 -0.614225507 0.710109949
  outer loop
   vertex 80324.5078 19709 62392.918
   vertex 80279.9609 19635.2422 62307.5273
   vertex 80358.4453 19699.668 62401.3008
  endloop
 endfacet
facet normal -0.343081564 -0.786000371 0.514294147
  outer loop
   vertex 80324.5078 19709 62392.918
   vertex 80358.4453 19699.668 62401.3008
   vertex 80362.4062 19712.1133 62422.9609
  endloop
 endfacet
facet normal 0.654338956 -0.748204291 -0.109685376
  outer loop
   vertex 80141.7344 19487.9434 62130.7266
   vertex 80114.0547 19469.6875 62090.1211
   vertex 80145.8047 19495.002 62106.875
  endloop
 endfacet
facet normal 0.654379427 0.344090372 -0.67334193
  outer loop
   vertex 80150.125 19516.1211 62106.4492
   vertex 80134.4609 19547.1367 62107.082
   vertex 80201.1797 19563.7441 62180.4062
  endloop
 endfacet
facet normal 0.721180856 -0.61742866 -0.314133793
  outer loop
   vertex 80279.9609 19635.2422 62307.5273
   vertex 80338.625 19703.3262 62308.3906
   vertex 80362.7109 19698.9375 62372.3125
  endloop
 endfacet
facet normal 0.660107911 -0.412592113 -0.627714336
  outer loop
   vertex 80114.0547 19469.6875 62090.1211
   vertex 80116.3359 19488.3945 62080.2266
   vertex 80145.8047 19495.002 62106.875
  endloop
 endfacet
facet normal 0.454200476 0.289300531 -0.842619181
  outer loop
   vertex 80093.0781 19509.1426 62071.7266
   vertex 80134.4609 19547.1367 62107.082
   vertex 80101.3516 19500.2773 62073.1445
  endloop
 endfacet
facet normal 0.381702036 0.371670395 -0.846265137
  outer loop
   vertex 80082.4297 19525.1113 62073.9375
   vertex 80134.4609 19547.1367 62107.082
   vertex 80093.0781 19509.1426 62071.7266
  endloop
 endfacet
facet normal 0.545573592 0.203305528 -0.81302911
  outer loop
   vertex 80134.4609 19547.1367 62107.082
   vertex 80116.3359 19488.3945 62080.2266
   vertex 80101.3516 19500.2773 62073.1445
  endloop
 endfacet
facet normal 0.799097121 -0.599798858 -0.0410509072
  outer loop
   vertex 80201.1797 19563.7441 62180.4062
   vertex 80141.7344 19487.9434 62130.7266
   vertex 80145.8047 19495.002 62106.875
  endloop
 endfacet
facet normal -0.292271614 -0.892456472 0.34365496
  outer loop
   vertex 80081.9219 19480.5176 62090.918
   vertex 80100.5469 19467.584 62073.1719
   vertex 80114.0547 19469.6875 62090.1211
  endloop
 endfacet
facet normal 0.74579978 -0.380332649 -0.546927571
  outer loop
   vertex 80114.0547 19469.6875 62090.1211
   vertex 80100.5469 19467.584 62073.1719
   vertex 80116.3359 19488.3945 62080.2266
  endloop
 endfacet
facet normal 0.702828467 -0.682545662 0.200408548
  outer loop
   vertex 80140.2734 19503.8555 62190.0508
   vertex 80141.7344 19487.9434 62130.7266
   vertex 80201.1797 19563.7441 62180.4062
  endloop
 endfacet
facet normal 0.0476327389 -0.355916053 -0.933303237
  outer loop
   vertex 80082.4297 19525.1113 62073.9375
   vertex 80081.9219 19480.5176 62090.918
   vertex 80063.6016 19511.6973 62078.0938
  endloop
 endfacet
facet normal -0.359857887 0.532693863 -0.765989244
  outer loop
   vertex 80100.5469 19467.584 62073.1719
   vertex 80081.9219 19480.5176 62090.918
   vertex 80116.3359 19488.3945 62080.2266
  endloop
 endfacet
facet normal 0.681462228 -0.15370436 -0.715530694
  outer loop
   vertex 80116.3359 19488.3945 62080.2266
   vertex 80150.125 19516.1211 62106.4492
   vertex 80145.8047 19495.002 62106.875
  endloop
 endfacet
endsolid MATLAB_1
