solid MATLAB_1
facet normal -0.837766051 0.382860005 -0.389315069
  outer loop
   vertex 36046.7578 76561.6562 36943.7891
   vertex 36020.7227 76529.75 36968.4375
   vertex 36024.0234 76552.9219 36984.1289
  endloop
 endfacet
facet normal -0.811315596 -0.273831218 -0.516510785
  outer loop
   vertex 36011.8242 76621.2109 36967.0859
   vertex 36046.7578 76561.6562 36943.7891
   vertex 36024.0234 76552.9219 36984.1289
  endloop
 endfacet
facet normal -0.922438264 -0.251854837 0.292706013
  outer loop
   vertex 36473.957 77074.3828 37691.2578
   vertex 36469.1914 77135.4062 37728.7461
   vertex 36457.1289 77158.6016 37710.6797
  endloop
 endfacet
facet normal 0.712610185 0.690979719 0.121382549
  outer loop
   vertex 36786.5703 77071.9062 37322.2578
   vertex 36710.1172 77155.1875 37297
   vertex 36687.1367 77143.6484 37497.6133
  endloop
 endfacet
facet normal 0.0957155675 0.992469609 -0.0764371529
  outer loop
   vertex 36476.9766 77189 37655.8125
   vertex 36473.293 77194.2969 37719.918
   vertex 36502.5117 77191.2656 37717.1172
  endloop
 endfacet
facet normal -0.812574148 0.580390275 0.0535765626
  outer loop
   vertex 36193.9336 77066.5078 37409.9414
   vertex 36274.4062 77180.0703 37400.2031
   vertex 36241.9883 77143.2422 37307.543
  endloop
 endfacet
facet normal -0.536101282 0.671692371 0.511297107
  outer loop
   vertex 36412.1172 77196.4141 37550.7344
   vertex 36287.2734 77139.2188 37494.9727
   vertex 36371.5195 77116.7891 37612.7812
  endloop
 endfacet
facet normal 0.728846252 -0.353048861 0.586634159
  outer loop
   vertex 36734.6797 77002.1719 37482.7344
   vertex 36641.2773 76937.375 37559.7812
   vertex 36726.8516 76874.1797 37415.4336
  endloop
 endfacet
facet normal 0.594658315 -0.402373016 0.696044147
  outer loop
   vertex 36774.5 76937.4844 37411.3164
   vertex 36734.6797 77002.1719 37482.7344
   vertex 36726.8516 76874.1797 37415.4336
  endloop
 endfacet
facet normal -0.620340228 -0.407486826 -0.670173466
  outer loop
   vertex 36228.9961 76574.6016 36767.9453
   vertex 36132.0469 76610.6328 36835.7852
   vertex 36191.1914 76631.875 36768.1172
  endloop
 endfacet
facet normal -0.262604654 -0.736148477 0.623798251
  outer loop
   vertex 36274.6055 76609.5391 37344.4688
   vertex 36138.4023 76679.8438 37370.0938
   vertex 36187.3203 76568.3438 37259.1094
  endloop
 endfacet
facet normal -0.970716655 -0.199063927 0.134471953
  outer loop
   vertex 36013.3945 76741.1562 37152.8594
   vertex 36039.8086 76694.0938 37273.8594
   vertex 36024.5781 76768.5703 37274.1523
  endloop
 endfacet
facet normal -0.414260566 -0.391025603 0.821880281
  outer loop
   vertex 36024.0234 76552.9219 36984.1289
   vertex 36033.2305 76528.9688 36977.3711
   vertex 36092.1445 76541.4844 37013.0234
  endloop
 endfacet
facet normal -0.713043511 -0.686984718 0.140074581
  outer loop
   vertex 36018.2852 76622.9766 37036.6992
   vertex 36092.1445 76541.4844 37013.0234
   vertex 36058.3984 76598.1406 37119.1172
  endloop
 endfacet
facet normal -0.00173046463 0.739635348 -0.673005581
  outer loop
   vertex 36555.8086 77178.9844 37080.1367
   vertex 36486.0938 77225.6562 37131.6094
   vertex 36548.4336 77234.5234 37141.1953
  endloop
 endfacet
facet normal 0.327296078 -0.75486201 0.56838423
  outer loop
   vertex 36410.1953 76613.5938 37316.1992
   vertex 36551.1094 76694.75 37342.8359
   vertex 36378.2891 76688.3281 37433.8242
  endloop
 endfacet
facet normal -0.00263773045 0.485359132 -0.874310911
  outer loop
   vertex 36367.7656 76990.0234 36882.9258
   vertex 36233.0117 76814.4609 36785.8711
   vertex 36159.9219 76922.4062 36846.0156
  endloop
 endfacet
facet normal -0.392206877 0.872419596 -0.291646749
  outer loop
   vertex 36485.2969 77249.3438 37203.543
   vertex 36486.0938 77225.6562 37131.6094
   vertex 36380.9922 77220.9688 37258.918
  endloop
 endfacet
facet normal -0.994709611 -0.0427585021 0.0934050754
  outer loop
   vertex 36011.8242 76621.2109 36967.0859
   vertex 36018.2852 76622.9766 37036.6992
   vertex 36008.125 76750.5078 36986.8711
  endloop
 endfacet
facet normal -0.807093441 -0.390757769 0.442615569
  outer loop
   vertex 36138.4023 76679.8438 37370.0938
   vertex 36161.1289 76725.0625 37451.457
   vertex 36140.3672 76774.9609 37457.6523
  endloop
 endfacet
facet normal -0.532967508 -0.723412454 0.438884944
  outer loop
   vertex 36039.8086 76694.0938 37273.8594
   vertex 36138.4023 76679.8438 37370.0938
   vertex 36047.0977 76720.5703 37326.3438
  endloop
 endfacet
facet normal -0.569409907 -0.663690209 0.485064566
  outer loop
   vertex 36039.8086 76694.0938 37273.8594
   vertex 36083.9023 76621.3672 37226.1055
   vertex 36138.4023 76679.8438 37370.0938
  endloop
 endfacet
facet normal -0.743065476 -0.371232957 0.556812167
  outer loop
   vertex 36164.6016 76792.3203 37501.5664
   vertex 36143.3789 76824.7031 37494.832
   vertex 36140.3672 76774.9609 37457.6523
  endloop
 endfacet
facet normal -0.893664181 0.324269295 0.310183376
  outer loop
   vertex 36079.1875 76787.4453 37366.4375
   vertex 36159.9766 76916.4922 37464.293
   vertex 36090.082 76907.9062 37271.8945
  endloop
 endfacet
facet normal 0.153867483 -0.217396542 -0.963879406
  outer loop
   vertex 36233.0117 76814.4609 36785.8711
   vertex 36120.0742 76731.0703 36786.6484
   vertex 36143.4258 76797.7812 36775.332
  endloop
 endfacet
facet normal -0.162855878 0.97205168 0.169096097
  outer loop
   vertex 36412.1172 77196.4141 37550.7344
   vertex 36476.9766 77189 37655.8125
   vertex 36566.1172 77226.0781 37528.5195
  endloop
 endfacet
facet normal 0.817565024 -0.575242817 -0.0261365343
  outer loop
   vertex 36735.0156 76802.0156 37334.3047
   vertex 36698.4844 76755.7344 37210.1719
   vertex 36759.2852 76837.0156 37323.2266
  endloop
 endfacet
facet normal -0.267782062 0.730222166 -0.628544629
  outer loop
   vertex 36367.7656 76990.0234 36882.9258
   vertex 36168.707 76985.875 36962.9062
   vertex 36343.207 77127.875 37053.5352
  endloop
 endfacet
facet normal 0.359333992 0.605103791 0.710442483
  outer loop
   vertex 36584.7656 77024.4297 37695.2227
   vertex 36621.9961 77019.9141 37680.2344
   vertex 36638.418 77056.2812 37640.9531
  endloop
 endfacet
facet normal -0.368412942 0.444409639 0.816561043
  outer loop
   vertex 36495.9727 77148.1172 37733.9102
   vertex 36457.1289 77158.6016 37710.6797
   vertex 36469.1914 77135.4062 37728.7461
  endloop
 endfacet
facet normal -0.654857934 -0.291666001 0.697202981
  outer loop
   vertex 36371.5195 77116.7891 37612.7812
   vertex 36473.957 77074.3828 37691.2578
   vertex 36457.1289 77158.6016 37710.6797
  endloop
 endfacet
facet normal -0.663146317 0.488345474 0.567235053
  outer loop
   vertex 36250.4531 77041.9375 37535.6836
   vertex 36371.5195 77116.7891 37612.7812
   vertex 36287.2734 77139.2188 37494.9727
  endloop
 endfacet
facet normal 0.132515565 0.907170653 0.399350703
  outer loop
   vertex 36473.293 77194.2969 37719.918
   vertex 36483.2461 77185.1172 37737.4609
   vertex 36502.5117 77191.2656 37717.1172
  endloop
 endfacet
facet normal -0.395216614 -0.0684906319 0.916031063
  outer loop
   vertex 36143.3789 76824.7031 37494.832
   vertex 36164.6016 76792.3203 37501.5664
   vertex 36189.3789 76844.1875 37516.1367
  endloop
 endfacet
facet normal -0.656518161 0.193157613 0.729159832
  outer loop
   vertex 36597.1914 77097.0547 37718.1289
   vertex 36581.4609 77076.4375 37709.4297
   vertex 36591.3828 77061.3125 37722.3711
  endloop
 endfacet
facet normal 0.132758871 0.757997632 0.638603687
  outer loop
   vertex 36566.9766 77221.3359 37219.8125
   vertex 36485.2969 77249.3438 37203.543
   vertex 36380.9922 77220.9688 37258.918
  endloop
 endfacet
facet normal -0.0384640843 0.984063089 -0.173609748
  outer loop
   vertex 36509.1914 77244.75 37365.3281
   vertex 36566.9766 77221.3359 37219.8125
   vertex 36380.9922 77220.9688 37258.918
  endloop
 endfacet
facet normal -0.733540535 0.302813202 0.608459055
  outer loop
   vertex 36597.1914 77097.0547 37718.1289
   vertex 36580.4531 77151.6172 37670.793
   vertex 36581.4609 77076.4375 37709.4297
  endloop
 endfacet
facet normal 0.825173914 -0.238703728 -0.511965394
  outer loop
   vertex 36251.1523 76560.2578 36746.3281
   vertex 36268.4609 76599.5391 36755.9102
   vertex 36258.043 76559.3047 36757.8789
  endloop
 endfacet
facet normal 0.330675572 -0.625103891 0.707035184
  outer loop
   vertex 36641.2773 76937.375 37559.7812
   vertex 36498.8789 76928.3828 37618.4297
   vertex 36565.1484 76801.4609 37475.2227
  endloop
 endfacet
facet normal 0.79858917 -0.595451653 0.087707974
  outer loop
   vertex 36774.5 76937.4844 37411.3164
   vertex 36726.8516 76874.1797 37415.4336
   vertex 36787.4648 76940.3125 37312.5078
  endloop
 endfacet
facet normal 0.396765471 -0.82261014 0.407295614
  outer loop
   vertex 36551.1094 76694.75 37342.8359
   vertex 36410.1953 76613.5938 37316.1992
   vertex 36526.6602 76619.5469 37214.7578
  endloop
 endfacet
facet normal 0.914926589 -0.279789835 -0.290907234
  outer loop
   vertex 36787.4648 76940.3125 37312.5078
   vertex 36759.2852 76837.0156 37323.2266
   vertex 36698.4844 76755.7344 37210.1719
  endloop
 endfacet
facet normal 0.60316813 -0.588989079 0.537847698
  outer loop
   vertex 36787.4648 76940.3125 37312.5078
   vertex 36698.4844 76755.7344 37210.1719
   vertex 36786.2617 76843.3828 37207.707
  endloop
 endfacet
facet normal 0.337516636 -0.210638434 0.917449713
  outer loop
   vertex 36258.6406 76764.7266 37495.3789
   vertex 36290.9062 76689.8672 37466.3242
   vertex 36378.2891 76688.3281 37433.8242
  endloop
 endfacet
facet normal -0.0952869654 -0.99411422 0.0515492409
  outer loop
   vertex 36092.1445 76541.4844 37013.0234
   vertex 36261.1992 76527.25 37050.9531
   vertex 36163.0977 76542.2422 37158.7578
  endloop
 endfacet
facet normal 0.938147485 0.3461546 0.00750031043
  outer loop
   vertex 36786.5703 77071.9062 37322.2578
   vertex 36802.6211 77030.7266 37214.9648
   vertex 36777.0391 77099.6094 37236.0234
  endloop
 endfacet
facet normal 0.779194891 0.615271509 -0.119567133
  outer loop
   vertex 36786.5703 77071.9062 37322.2578
   vertex 36819.5586 77022.4922 37282.9414
   vertex 36802.6211 77030.7266 37214.9648
  endloop
 endfacet
facet normal 0.362010062 -0.736677587 -0.571187198
  outer loop
   vertex 36046.7578 76561.6562 36943.7891
   vertex 36033.2305 76528.9688 36977.3711
   vertex 36020.7227 76529.75 36968.4375
  endloop
 endfacet
facet normal -0.782969356 -0.578179419 -0.229494035
  outer loop
   vertex 36132.0469 76610.6328 36835.7852
   vertex 36074.9609 76695.75 36816.082
   vertex 36091.6016 76681.5312 36795.1367
  endloop
 endfacet
facet normal -0.345535249 -0.87652266 0.335132003
  outer loop
   vertex 36228.9961 76574.6016 36767.9453
   vertex 36258.043 76559.3047 36757.8789
   vertex 36285.3008 76569.8359 36813.5234
  endloop
 endfacet
facet normal 0.232220039 -0.292400032 -0.927672386
  outer loop
   vertex 36091.6016 76681.5312 36795.1367
   vertex 36083.1289 76701.4609 36786.7344
   vertex 36120.0742 76731.0703 36786.6484
  endloop
 endfacet
facet normal 0.887584031 -0.248778388 -0.387690395
  outer loop
   vertex 36268.4609 76599.5391 36755.9102
   vertex 36285.3008 76569.8359 36813.5234
   vertex 36258.043 76559.3047 36757.8789
  endloop
 endfacet
facet normal 0.250433087 -0.828752756 -0.500451982
  outer loop
   vertex 36349.8398 76611.2188 36777.2891
   vertex 36285.3008 76569.8359 36813.5234
   vertex 36268.4609 76599.5391 36755.9102
  endloop
 endfacet
facet normal -0.93488878 0.0274004005 -0.353881657
  outer loop
   vertex 36011.8242 76621.2109 36967.0859
   vertex 36008.125 76750.5078 36986.8711
   vertex 36040.4688 76667.2344 36894.9766
  endloop
 endfacet
facet normal -0.652118266 -0.341028273 -0.677083075
  outer loop
   vertex 36191.1914 76631.875 36768.1172
   vertex 36132.0469 76610.6328 36835.7852
   vertex 36120.0742 76731.0703 36786.6484
  endloop
 endfacet
facet normal 0.312413484 -0.332033128 -0.890029073
  outer loop
   vertex 36091.6016 76681.5312 36795.1367
   vertex 36120.0742 76731.0703 36786.6484
   vertex 36132.0469 76610.6328 36835.7852
  endloop
 endfacet
facet normal -0.16825597 0.964914322 0.201569453
  outer loop
   vertex 36486.0938 77225.6562 37131.6094
   vertex 36566.9766 77221.3359 37219.8125
   vertex 36548.4336 77234.5234 37141.1953
  endloop
 endfacet
facet normal 0.36146906 0.886777461 -0.288037926
  outer loop
   vertex 36486.0938 77225.6562 37131.6094
   vertex 36485.2969 77249.3438 37203.543
   vertex 36566.9766 77221.3359 37219.8125
  endloop
 endfacet
facet normal -0.651447237 -0.350005925 -0.673136234
  outer loop
   vertex 36132.0469 76610.6328 36835.7852
   vertex 36046.7578 76561.6562 36943.7891
   vertex 36040.4688 76667.2344 36894.9766
  endloop
 endfacet
facet normal -0.944850147 0.303443134 0.123209059
  outer loop
   vertex 36089.1602 76908.0781 36865.9492
   vertex 36071.0312 76868.6641 36824.0039
   vertex 36051.4766 76795.3359 36854.6289
  endloop
 endfacet
facet normal -0.20971401 -0.135528296 -0.968324363
  outer loop
   vertex 36228.9961 76574.6016 36767.9453
   vertex 36191.1914 76631.875 36768.1172
   vertex 36268.4609 76599.5391 36755.9102
  endloop
 endfacet
facet normal -0.490880758 0.40450111 -0.7716313
  outer loop
   vertex 36251.1523 76560.2578 36746.3281
   vertex 36228.9961 76574.6016 36767.9453
   vertex 36268.4609 76599.5391 36755.9102
  endloop
 endfacet
facet normal 0.645707667 -0.758278131 -0.0898660719
  outer loop
   vertex 36553.3281 76702.0469 36819.1758
   vertex 36621.4492 76743.0625 36962.6211
   vertex 36477.3828 76635.0234 36839.0547
  endloop
 endfacet
facet normal 0.69173944 -0.105285324 -0.714430928
  outer loop
   vertex 36564.9219 76635.0469 36923.8047
   vertex 36477.3828 76635.0234 36839.0547
   vertex 36621.4492 76743.0625 36962.6211
  endloop
 endfacet
facet normal 0.0661546439 -0.989353716 -0.129625335
  outer loop
   vertex 36364.0781 76549.375 36934.5781
   vertex 36261.1992 76527.25 37050.9531
   vertex 36203.3125 76540.0078 36924.0156
  endloop
 endfacet
facet normal -0.824064612 0.393995553 0.407044172
  outer loop
   vertex 36024.5781 76768.5703 37274.1523
   vertex 36079.1875 76787.4453 37366.4375
   vertex 36090.082 76907.9062 37271.8945
  endloop
 endfacet
facet normal 0.0105477506 -0.989057124 0.147155583
  outer loop
   vertex 36308.9102 76551.0938 37207.793
   vertex 36163.0977 76542.2422 37158.7578
   vertex 36261.1992 76527.25 37050.9531
  endloop
 endfacet
facet normal -0.759748995 0.53507942 -0.369420469
  outer loop
   vertex 35990.4219 76787.375 37076.6797
   vertex 36045.3555 76864.8281 37075.8867
   vertex 36008.125 76750.5078 36986.8711
  endloop
 endfacet
facet normal -0.399983644 -0.57087636 0.717016935
  outer loop
   vertex 36018.2852 76622.9766 37036.6992
   vertex 36024.0234 76552.9219 36984.1289
   vertex 36092.1445 76541.4844 37013.0234
  endloop
 endfacet
facet normal -0.983791292 -0.151988924 0.0951529667
  outer loop
   vertex 36018.2852 76622.9766 37036.6992
   vertex 36011.8242 76621.2109 36967.0859
   vertex 36024.0234 76552.9219 36984.1289
  endloop
 endfacet
facet normal -0.259584963 -0.959510148 -0.109343335
  outer loop
   vertex 36046.7578 76561.6562 36943.7891
   vertex 36109.6211 76546.7422 36925.4297
   vertex 36092.1445 76541.4844 37013.0234
  endloop
 endfacet
facet normal 0.464488983 -0.720811963 -0.514470637
  outer loop
   vertex 36033.2305 76528.9688 36977.3711
   vertex 36046.7578 76561.6562 36943.7891
   vertex 36092.1445 76541.4844 37013.0234
  endloop
 endfacet
facet normal -0.545734167 -0.415070772 0.727935791
  outer loop
   vertex 36033.2305 76528.9688 36977.3711
   vertex 36024.0234 76552.9219 36984.1289
   vertex 36020.7227 76529.75 36968.4375
  endloop
 endfacet
facet normal -0.0667087585 -0.804573059 -0.590095043
  outer loop
   vertex 36203.3125 76540.0078 36924.0156
   vertex 36109.6211 76546.7422 36925.4297
   vertex 36132.0469 76610.6328 36835.7852
  endloop
 endfacet
facet normal -0.346348166 -0.72083503 -0.600366354
  outer loop
   vertex 36132.0469 76610.6328 36835.7852
   vertex 36109.6211 76546.7422 36925.4297
   vertex 36046.7578 76561.6562 36943.7891
  endloop
 endfacet
facet normal -0.0725670457 -0.994604588 -0.0741331279
  outer loop
   vertex 36203.3125 76540.0078 36924.0156
   vertex 36092.1445 76541.4844 37013.0234
   vertex 36109.6211 76546.7422 36925.4297
  endloop
 endfacet
facet normal -0.068366155 -0.995280027 -0.0688750595
  outer loop
   vertex 36203.3125 76540.0078 36924.0156
   vertex 36261.1992 76527.25 37050.9531
   vertex 36092.1445 76541.4844 37013.0234
  endloop
 endfacet
facet normal -0.878857493 -0.352417171 0.321576804
  outer loop
   vertex 36013.3945 76741.1562 37152.8594
   vertex 36018.2852 76622.9766 37036.6992
   vertex 36058.3984 76598.1406 37119.1172
  endloop
 endfacet
facet normal 0.0395071991 -0.915116072 0.401250184
  outer loop
   vertex 36308.9102 76551.0938 37207.793
   vertex 36274.6055 76609.5391 37344.4688
   vertex 36187.3203 76568.3438 37259.1094
  endloop
 endfacet
facet normal -0.535085082 -0.790102184 0.299035937
  outer loop
   vertex 36058.3984 76598.1406 37119.1172
   vertex 36163.0977 76542.2422 37158.7578
   vertex 36083.9023 76621.3672 37226.1055
  endloop
 endfacet
facet normal 0.174602464 -0.979960859 0.0958682746
  outer loop
   vertex 36450.582 76563.0625 37072.1523
   vertex 36308.9102 76551.0938 37207.793
   vertex 36261.1992 76527.25 37050.9531
  endloop
 endfacet
facet normal 0.0440705121 0.0316063911 -0.998528302
  outer loop
   vertex 36268.4609 76599.5391 36755.9102
   vertex 36230.3477 76689.5 36757.0742
   vertex 36358.1133 76699.3359 36763.0273
  endloop
 endfacet
facet normal 0.0281326566 0.223893568 -0.974207461
  outer loop
   vertex 36233.0117 76814.4609 36785.8711
   vertex 36358.1133 76699.3359 36763.0273
   vertex 36230.3477 76689.5 36757.0742
  endloop
 endfacet
facet normal -0.529893994 -0.806523502 0.262168229
  outer loop
   vertex 36092.1445 76541.4844 37013.0234
   vertex 36163.0977 76542.2422 37158.7578
   vertex 36058.3984 76598.1406 37119.1172
  endloop
 endfacet
facet normal 0.187161461 -0.899785161 -0.394153833
  outer loop
   vertex 36308.9102 76551.0938 37207.793
   vertex 36212.0156 76528.1953 37214.0508
   vertex 36163.0977 76542.2422 37158.7578
  endloop
 endfacet
facet normal 0.312520325 0.441709459 -0.840965986
  outer loop
   vertex 36459.5859 76974.5312 36848.2969
   vertex 36483.6055 76917.8672 36827.4609
   vertex 36434.75 76934.8047 36818.2031
  endloop
 endfacet
facet normal 0.204818204 -0.672372758 0.711311698
  outer loop
   vertex 36212.0156 76528.1953 37214.0508
   vertex 36308.9102 76551.0938 37207.793
   vertex 36187.3203 76568.3438 37259.1094
  endloop
 endfacet
facet normal 0.231150001 -0.334424913 0.913635373
  outer loop
   vertex 36584.7656 77024.4297 37695.2227
   vertex 36551.4688 77022.7344 37703.0273
   vertex 36551.1133 76986.3438 37689.7969
  endloop
 endfacet
facet normal -0.322227001 -0.805539668 0.49726814
  outer loop
   vertex 36259.5742 76669.7266 37432.2305
   vertex 36138.4023 76679.8438 37370.0938
   vertex 36274.6055 76609.5391 37344.4688
  endloop
 endfacet
facet normal -0.891828656 -0.348637938 0.288259
  outer loop
   vertex 36058.3984 76598.1406 37119.1172
   vertex 36083.9023 76621.3672 37226.1055
   vertex 36013.3945 76741.1562 37152.8594
  endloop
 endfacet
facet normal -0.858534098 -0.512616634 -0.0119744921
  outer loop
   vertex 36039.8086 76694.0938 37273.8594
   vertex 36013.3945 76741.1562 37152.8594
   vertex 36083.9023 76621.3672 37226.1055
  endloop
 endfacet
facet normal -0.516598761 -0.707172692 0.482734352
  outer loop
   vertex 36138.4023 76679.8438 37370.0938
   vertex 36083.9023 76621.3672 37226.1055
   vertex 36187.3203 76568.3438 37259.1094
  endloop
 endfacet
facet normal -0.511909962 -0.793170214 0.329892695
  outer loop
   vertex 36163.0977 76542.2422 37158.7578
   vertex 36187.3203 76568.3438 37259.1094
   vertex 36083.9023 76621.3672 37226.1055
  endloop
 endfacet
facet normal -0.588517725 -0.736436248 0.33362937
  outer loop
   vertex 36163.0977 76542.2422 37158.7578
   vertex 36212.0156 76528.1953 37214.0508
   vertex 36187.3203 76568.3438 37259.1094
  endloop
 endfacet
facet normal -0.781181157 -0.414003164 0.467287213
  outer loop
   vertex 36079.1875 76787.4453 37366.4375
   vertex 36138.4023 76679.8438 37370.0938
   vertex 36140.3672 76774.9609 37457.6523
  endloop
 endfacet
facet normal -0.507055223 -0.251010627 0.824553609
  outer loop
   vertex 36047.0977 76720.5703 37326.3438
   vertex 36138.4023 76679.8438 37370.0938
   vertex 36079.1875 76787.4453 37366.4375
  endloop
 endfacet
facet normal -0.864894927 0.12325725 0.486584425
  outer loop
   vertex 36024.5781 76768.5703 37274.1523
   vertex 36047.0977 76720.5703 37326.3438
   vertex 36079.1875 76787.4453 37366.4375
  endloop
 endfacet
facet normal 0.119063899 -0.809188604 0.575358629
  outer loop
   vertex 36259.5742 76669.7266 37432.2305
   vertex 36274.6055 76609.5391 37344.4688
   vertex 36378.2891 76688.3281 37433.8242
  endloop
 endfacet
facet normal -0.953012466 -0.1958244 0.231127724
  outer loop
   vertex 36024.5781 76768.5703 37274.1523
   vertex 36039.8086 76694.0938 37273.8594
   vertex 36047.0977 76720.5703 37326.3438
  endloop
 endfacet
facet normal -0.327435195 0.515137851 -0.792097986
  outer loop
   vertex 36159.9219 76922.4062 36846.0156
   vertex 36089.1602 76908.0781 36865.9492
   vertex 36125.6055 76953.8594 36880.6562
  endloop
 endfacet
facet normal -0.221667081 -0.858813703 0.461847067
  outer loop
   vertex 36164.6016 76792.3203 37501.5664
   vertex 36140.3672 76774.9609 37457.6523
   vertex 36258.6406 76764.7266 37495.3789
  endloop
 endfacet
facet normal -0.478686035 -0.489318073 0.728990734
  outer loop
   vertex 36259.5742 76669.7266 37432.2305
   vertex 36290.9062 76689.8672 37466.3242
   vertex 36258.6406 76764.7266 37495.3789
  endloop
 endfacet
facet normal -0.313830435 -0.244458824 0.917469561
  outer loop
   vertex 36140.3672 76774.9609 37457.6523
   vertex 36161.1289 76725.0625 37451.457
   vertex 36258.6406 76764.7266 37495.3789
  endloop
 endfacet
facet normal -0.427149415 -0.503469884 0.75104022
  outer loop
   vertex 36138.4023 76679.8438 37370.0938
   vertex 36259.5742 76669.7266 37432.2305
   vertex 36258.6406 76764.7266 37495.3789
  endloop
 endfacet
facet normal 0.157631099 -0.88118273 0.445723504
  outer loop
   vertex 36161.1289 76725.0625 37451.457
   vertex 36138.4023 76679.8438 37370.0938
   vertex 36258.6406 76764.7266 37495.3789
  endloop
 endfacet
facet normal 0.13595593 -0.902681589 0.408267021
  outer loop
   vertex 36290.9062 76689.8672 37466.3242
   vertex 36259.5742 76669.7266 37432.2305
   vertex 36378.2891 76688.3281 37433.8242
  endloop
 endfacet
facet normal -0.986293435 -0.116171397 0.117172733
  outer loop
   vertex 36013.3945 76741.1562 37152.8594
   vertex 36024.5781 76768.5703 37274.1523
   vertex 36016.0625 76801.4688 37235.0859
  endloop
 endfacet
facet normal 0.285374105 0.833105862 -0.473810375
  outer loop
   vertex 36159.9219 76922.4062 36846.0156
   vertex 36125.6055 76953.8594 36880.6562
   vertex 36168.707 76985.875 36962.9062
  endloop
 endfacet
facet normal -0.201185226 0.86710459 -0.455690831
  outer loop
   vertex 36159.9219 76922.4062 36846.0156
   vertex 36168.707 76985.875 36962.9062
   vertex 36367.7656 76990.0234 36882.9258
  endloop
 endfacet
facet normal 0.140783489 -0.817914069 0.557850003
  outer loop
   vertex 36410.1953 76613.5938 37316.1992
   vertex 36378.2891 76688.3281 37433.8242
   vertex 36274.6055 76609.5391 37344.4688
  endloop
 endfacet
facet normal -0.821727633 0.087420769 0.563135266
  outer loop
   vertex 36079.1875 76787.4453 37366.4375
   vertex 36140.3672 76774.9609 37457.6523
   vertex 36159.9766 76916.4922 37464.293
  endloop
 endfacet
facet normal -0.598017633 -0.0245803669 0.801105917
  outer loop
   vertex 36159.9766 76916.4922 37464.293
   vertex 36304.1562 76954.4297 37573.0859
   vertex 36250.4531 77041.9375 37535.6836
  endloop
 endfacet
facet normal -0.983865261 0.141446814 -0.109553523
  outer loop
   vertex 36159.9766 76916.4922 37464.293
   vertex 36140.3672 76774.9609 37457.6523
   vertex 36143.3789 76824.7031 37494.832
  endloop
 endfacet
facet normal -0.123952866 -0.350508869 0.928320646
  outer loop
   vertex 36258.6406 76764.7266 37495.3789
   vertex 36304.1562 76954.4297 37573.0859
   vertex 36189.3789 76844.1875 37516.1367
  endloop
 endfacet
facet normal -0.0140811726 -0.264163494 0.964375138
  outer loop
   vertex 36164.6016 76792.3203 37501.5664
   vertex 36258.6406 76764.7266 37495.3789
   vertex 36189.3789 76844.1875 37516.1367
  endloop
 endfacet
facet normal -0.624202847 0.271421313 0.73259902
  outer loop
   vertex 36189.3789 76844.1875 37516.1367
   vertex 36304.1562 76954.4297 37573.0859
   vertex 36159.9766 76916.4922 37464.293
  endloop
 endfacet
facet normal -0.512167096 0.353085279 0.782953143
  outer loop
   vertex 36143.3789 76824.7031 37494.832
   vertex 36189.3789 76844.1875 37516.1367
   vertex 36159.9766 76916.4922 37464.293
  endloop
 endfacet
facet normal -0.751805246 0.562272906 0.344438761
  outer loop
   vertex 36274.4062 77180.0703 37400.2031
   vertex 36193.9336 77066.5078 37409.9414
   vertex 36287.2734 77139.2188 37494.9727
  endloop
 endfacet
facet normal 0.874021173 0.0675809011 0.481165051
  outer loop
   vertex 36687.1367 77143.6484 37497.6133
   vertex 36650.7266 77241.7109 37549.9805
   vertex 36641.293 77229.8594 37568.7773
  endloop
 endfacet
facet normal -0.546753585 0.0222209319 0.836998641
  outer loop
   vertex 36371.5195 77116.7891 37612.7812
   vertex 36250.4531 77041.9375 37535.6836
   vertex 36304.1562 76954.4297 37573.0859
  endloop
 endfacet
facet normal -0.59418726 0.0502749532 0.802753925
  outer loop
   vertex 36371.5195 77116.7891 37612.7812
   vertex 36304.1562 76954.4297 37573.0859
   vertex 36473.957 77074.3828 37691.2578
  endloop
 endfacet
facet normal -0.796992123 0.214830309 0.564492226
  outer loop
   vertex 36457.1289 77158.6016 37710.6797
   vertex 36483.2461 77185.1172 37737.4609
   vertex 36473.293 77194.2969 37719.918
  endloop
 endfacet
facet normal -0.752273083 0.658850133 0.00129625946
  outer loop
   vertex 36274.4062 77180.0703 37400.2031
   vertex 36317.9336 77229.8828 37343.3672
   vertex 36241.9883 77143.2422 37307.543
  endloop
 endfacet
facet normal -0.611291885 0.491062701 0.620628417
  outer loop
   vertex 36205 77049.7578 37484.7227
   vertex 36250.4531 77041.9375 37535.6836
   vertex 36287.2734 77139.2188 37494.9727
  endloop
 endfacet
facet normal -0.898808122 0.429603249 -0.0870917514
  outer loop
   vertex 36476.9766 77189 37655.8125
   vertex 36457.1289 77158.6016 37710.6797
   vertex 36473.293 77194.2969 37719.918
  endloop
 endfacet
facet normal -0.622961581 0.653082669 0.430583179
  outer loop
   vertex 36412.1172 77196.4141 37550.7344
   vertex 36371.5195 77116.7891 37612.7812
   vertex 36476.9766 77189 37655.8125
  endloop
 endfacet
facet normal -0.608557165 0.766655803 0.20468761
  outer loop
   vertex 36457.1289 77158.6016 37710.6797
   vertex 36476.9766 77189 37655.8125
   vertex 36371.5195 77116.7891 37612.7812
  endloop
 endfacet
facet normal -0.546546102 -0.264257491 0.794641674
  outer loop
   vertex 36483.2461 77185.1172 37737.4609
   vertex 36457.1289 77158.6016 37710.6797
   vertex 36495.9727 77148.1172 37733.9102
  endloop
 endfacet
facet normal 0.889797151 -0.418127745 0.18283923
  outer loop
   vertex 36650.7266 77241.7109 37549.9805
   vertex 36657.9766 77263.9531 37565.5547
   vertex 36641.293 77229.8594 37568.7773
  endloop
 endfacet
facet normal -0.786189914 0.377521604 0.489267707
  outer loop
   vertex 36016.0625 76801.4688 37235.0859
   vertex 36024.5781 76768.5703 37274.1523
   vertex 36090.082 76907.9062 37271.8945
  endloop
 endfacet
facet normal -0.506637514 0.805068612 0.308517396
  outer loop
   vertex 36287.2734 77139.2188 37494.9727
   vertex 36412.1172 77196.4141 37550.7344
   vertex 36384.6367 77230.6875 37416.1875
  endloop
 endfacet
facet normal -0.161779478 -0.155365944 0.974519789
  outer loop
   vertex 36473.957 77074.3828 37691.2578
   vertex 36581.4609 77076.4375 37709.4297
   vertex 36559.2422 77101.125 37709.6797
  endloop
 endfacet
facet normal -0.0332006365 -0.493027419 0.869380057
  outer loop
   vertex 36473.957 77074.3828 37691.2578
   vertex 36559.2422 77101.125 37709.6797
   vertex 36495.9727 77148.1172 37733.9102
  endloop
 endfacet
facet normal 0.0809971467 -0.517115533 0.852074564
  outer loop
   vertex 36495.9727 77148.1172 37733.9102
   vertex 36469.1914 77135.4062 37728.7461
   vertex 36473.957 77074.3828 37691.2578
  endloop
 endfacet
facet normal -0.666687906 0.611155093 -0.426634133
  outer loop
   vertex 36016.0625 76801.4688 37235.0859
   vertex 36090.082 76907.9062 37271.8945
   vertex 36013.3945 76741.1562 37152.8594
  endloop
 endfacet
facet normal 0.792536259 0.126512632 0.596557498
  outer loop
   vertex 36559.2422 77101.125 37709.6797
   vertex 36580.4531 77151.6172 37670.793
   vertex 36538.0781 77152.3672 37726.9297
  endloop
 endfacet
facet normal 0.182592288 -0.245155752 0.952133775
  outer loop
   vertex 36559.2422 77101.125 37709.6797
   vertex 36538.0781 77152.3672 37726.9297
   vertex 36495.9727 77148.1172 37733.9102
  endloop
 endfacet
facet normal 0.11986959 0.515853167 -0.848249257
  outer loop
   vertex 36566.1172 77226.0781 37528.5195
   vertex 36640.7109 77259.3984 37559.3242
   vertex 36650.7266 77241.7109 37549.9805
  endloop
 endfacet
facet normal -0.727594078 0.142956316 0.670947373
  outer loop
   vertex 36250.4531 77041.9375 37535.6836
   vertex 36205 77049.7578 37484.7227
   vertex 36159.9766 76916.4922 37464.293
  endloop
 endfacet
facet normal -0.726689994 0.639553189 0.25078544
  outer loop
   vertex 36193.9336 77066.5078 37409.9414
   vertex 36205 77049.7578 37484.7227
   vertex 36287.2734 77139.2188 37494.9727
  endloop
 endfacet
facet normal -0.840863943 0.54113704 0.010886116
  outer loop
   vertex 36193.9336 77066.5078 37409.9414
   vertex 36241.9883 77143.2422 37307.543
   vertex 36090.082 76907.9062 37271.8945
  endloop
 endfacet
facet normal -0.429313898 0.806745231 0.4060193
  outer loop
   vertex 36287.2734 77139.2188 37494.9727
   vertex 36384.6367 77230.6875 37416.1875
   vertex 36274.4062 77180.0703 37400.2031
  endloop
 endfacet
facet normal -0.936749339 0.285438865 0.202547073
  outer loop
   vertex 36193.9336 77066.5078 37409.9414
   vertex 36159.9766 76916.4922 37464.293
   vertex 36205 77049.7578 37484.7227
  endloop
 endfacet
facet normal -0.778716564 0.617993414 -0.108095631
  outer loop
   vertex 36168.707 76985.875 36962.9062
   vertex 36203.6914 77060.6016 37138.1445
   vertex 36229.2891 77076.8438 37046.5703
  endloop
 endfacet
facet normal -0.896252334 0.315748364 0.311503917
  outer loop
   vertex 36193.9336 77066.5078 37409.9414
   vertex 36090.082 76907.9062 37271.8945
   vertex 36159.9766 76916.4922 37464.293
  endloop
 endfacet
facet normal -0.75130111 0.64776814 -0.126266196
  outer loop
   vertex 36045.3555 76864.8281 37075.8867
   vertex 36203.6914 77060.6016 37138.1445
   vertex 36168.707 76985.875 36962.9062
  endloop
 endfacet
facet normal -0.796915591 0.571720183 0.195093915
  outer loop
   vertex 36089.1602 76908.0781 36865.9492
   vertex 36168.707 76985.875 36962.9062
   vertex 36125.6055 76953.8594 36880.6562
  endloop
 endfacet
facet normal -0.723709106 0.688884616 0.0410253704
  outer loop
   vertex 36046.168 76858.6484 36937.5586
   vertex 36168.707 76985.875 36962.9062
   vertex 36089.1602 76908.0781 36865.9492
  endloop
 endfacet
facet normal -0.831937075 0.549106121 -0.0797693431
  outer loop
   vertex 36241.9883 77143.2422 37307.543
   vertex 36203.6914 77060.6016 37138.1445
   vertex 36090.082 76907.9062 37271.8945
  endloop
 endfacet
facet normal -0.783398151 0.620067298 0.0424720272
  outer loop
   vertex 36045.3555 76864.8281 37075.8867
   vertex 36090.082 76907.9062 37271.8945
   vertex 36203.6914 77060.6016 37138.1445
  endloop
 endfacet
facet normal -0.897911072 -0.440161109 0.00372928986
  outer loop
   vertex 36013.3945 76741.1562 37152.8594
   vertex 35990.4219 76787.375 37076.6797
   vertex 36008.125 76750.5078 36986.8711
  endloop
 endfacet
facet normal -0.997257233 -0.0685886964 0.0278141852
  outer loop
   vertex 36013.3945 76741.1562 37152.8594
   vertex 36008.125 76750.5078 36986.8711
   vertex 36018.2852 76622.9766 37036.6992
  endloop
 endfacet
facet normal -0.815443039 -0.481864363 -0.320717007
  outer loop
   vertex 36091.6016 76681.5312 36795.1367
   vertex 36074.9609 76695.75 36816.082
   vertex 36083.1289 76701.4609 36786.7344
  endloop
 endfacet
facet normal 0.182356685 0.366439134 -0.912397087
  outer loop
   vertex 36108.1055 76833.875 36800.1055
   vertex 36093.6055 76895.2578 36821.8594
   vertex 36159.9219 76922.4062 36846.0156
  endloop
 endfacet
facet normal -0.716266394 0.696931601 -0.0353394039
  outer loop
   vertex 36168.707 76985.875 36962.9062
   vertex 36046.168 76858.6484 36937.5586
   vertex 36045.3555 76864.8281 37075.8867
  endloop
 endfacet
facet normal -0.794136643 0.560859144 -0.234059855
  outer loop
   vertex 35990.4219 76787.375 37076.6797
   vertex 35990.207 76796.7969 37099.9688
   vertex 36045.3555 76864.8281 37075.8867
  endloop
 endfacet
facet normal -0.945961654 0.323660553 -0.0200106259
  outer loop
   vertex 36008.125 76750.5078 36986.8711
   vertex 36045.3555 76864.8281 37075.8867
   vertex 36046.168 76858.6484 36937.5586
  endloop
 endfacet
facet normal -0.865982413 0.424898356 0.263696551
  outer loop
   vertex 36014.8047 76806.3984 36918.7539
   vertex 36008.125 76750.5078 36986.8711
   vertex 36046.168 76858.6484 36937.5586
  endloop
 endfacet
facet normal -0.362718791 0.558190763 0.746229291
  outer loop
   vertex 36045.3555 76864.8281 37075.8867
   vertex 35990.207 76796.7969 37099.9688
   vertex 36013.3945 76741.1562 37152.8594
  endloop
 endfacet
facet normal -0.933800161 0.328936219 0.140777111
  outer loop
   vertex 36045.3555 76864.8281 37075.8867
   vertex 36013.3945 76741.1562 37152.8594
   vertex 36090.082 76907.9062 37271.8945
  endloop
 endfacet
facet normal -0.90778923 -0.0530391745 -0.416059554
  outer loop
   vertex 36040.4688 76667.2344 36894.9766
   vertex 36051.4766 76795.3359 36854.6289
   vertex 36074.9609 76695.75 36816.082
  endloop
 endfacet
facet normal -0.816422641 -0.281684816 -0.504090965
  outer loop
   vertex 36046.7578 76561.6562 36943.7891
   vertex 36011.8242 76621.2109 36967.0859
   vertex 36040.4688 76667.2344 36894.9766
  endloop
 endfacet
facet normal -0.00710064871 0.56107384 -0.827735305
  outer loop
   vertex 36233.0117 76814.4609 36785.8711
   vertex 36143.4258 76797.7812 36775.332
   vertex 36108.1055 76833.875 36800.1055
  endloop
 endfacet
facet normal -0.620553374 0.151476473 -0.769394815
  outer loop
   vertex 36120.0742 76731.0703 36786.6484
   vertex 36074.9609 76695.75 36816.082
   vertex 36051.4766 76795.3359 36854.6289
  endloop
 endfacet
facet normal -0.625274599 0.780086875 -0.0222744774
  outer loop
   vertex 36120.0742 76731.0703 36786.6484
   vertex 36083.1289 76701.4609 36786.7344
   vertex 36074.9609 76695.75 36816.082
  endloop
 endfacet
facet normal -0.631068885 -0.149556488 -0.761173427
  outer loop
   vertex 36071.0312 76868.6641 36824.0039
   vertex 36108.1055 76833.875 36800.1055
   vertex 36051.4766 76795.3359 36854.6289
  endloop
 endfacet
facet normal -0.749664605 0.517041981 -0.413122922
  outer loop
   vertex 36079.0742 76792.2266 36800.6562
   vertex 36051.4766 76795.3359 36854.6289
   vertex 36108.1055 76833.875 36800.1055
  endloop
 endfacet
facet normal -0.0269147586 0.472579271 -0.880877078
  outer loop
   vertex 36233.0117 76814.4609 36785.8711
   vertex 36108.1055 76833.875 36800.1055
   vertex 36159.9219 76922.4062 36846.0156
  endloop
 endfacet
facet normal -0.804801345 -0.451318532 -0.385494977
  outer loop
   vertex 36079.0742 76792.2266 36800.6562
   vertex 36120.0742 76731.0703 36786.6484
   vertex 36051.4766 76795.3359 36854.6289
  endloop
 endfacet
facet normal -0.665273607 -0.560333073 -0.493394226
  outer loop
   vertex 36132.0469 76610.6328 36835.7852
   vertex 36040.4688 76667.2344 36894.9766
   vertex 36074.9609 76695.75 36816.082
  endloop
 endfacet
facet normal -0.665614307 0.572019339 -0.479323953
  outer loop
   vertex 36051.4766 76795.3359 36854.6289
   vertex 36014.8047 76806.3984 36918.7539
   vertex 36046.168 76858.6484 36937.5586
  endloop
 endfacet
facet normal -0.948220015 -0.0183882359 -0.317081481
  outer loop
   vertex 36051.4766 76795.3359 36854.6289
   vertex 36040.4688 76667.2344 36894.9766
   vertex 36008.125 76750.5078 36986.8711
  endloop
 endfacet
facet normal -0.825511277 -0.39393878 -0.404157668
  outer loop
   vertex 36051.4766 76795.3359 36854.6289
   vertex 36008.125 76750.5078 36986.8711
   vertex 36014.8047 76806.3984 36918.7539
  endloop
 endfacet
facet normal -0.89241606 0.329264849 -0.308509618
  outer loop
   vertex 36089.1602 76908.0781 36865.9492
   vertex 36051.4766 76795.3359 36854.6289
   vertex 36046.168 76858.6484 36937.5586
  endloop
 endfacet
facet normal -0.950134218 -0.292040229 0.109350368
  outer loop
   vertex 35990.4219 76787.375 37076.6797
   vertex 36013.3945 76741.1562 37152.8594
   vertex 35990.207 76796.7969 37099.9688
  endloop
 endfacet
facet normal -0.172501475 0.224679872 -0.959042311
  outer loop
   vertex 36230.3477 76689.5 36757.0742
   vertex 36120.0742 76731.0703 36786.6484
   vertex 36233.0117 76814.4609 36785.8711
  endloop
 endfacet
facet normal -0.261569798 -0.0072264974 -0.965157509
  outer loop
   vertex 36120.0742 76731.0703 36786.6484
   vertex 36230.3477 76689.5 36757.0742
   vertex 36191.1914 76631.875 36768.1172
  endloop
 endfacet
facet normal -0.181972995 -0.0643842369 -0.981193423
  outer loop
   vertex 36268.4609 76599.5391 36755.9102
   vertex 36191.1914 76631.875 36768.1172
   vertex 36230.3477 76689.5 36757.0742
  endloop
 endfacet
facet normal -0.508699954 0.319813162 -0.799339652
  outer loop
   vertex 36434.75 76934.8047 36818.2031
   vertex 36415.4062 76829.7891 36788.4961
   vertex 36367.7656 76990.0234 36882.9258
  endloop
 endfacet
facet normal -0.0296495017 0.500932217 -0.864978492
  outer loop
   vertex 36233.0117 76814.4609 36785.8711
   vertex 36367.7656 76990.0234 36882.9258
   vertex 36415.4062 76829.7891 36788.4961
  endloop
 endfacet
facet normal 0.342307091 -0.86417371 -0.368821949
  outer loop
   vertex 36285.3008 76569.8359 36813.5234
   vertex 36477.3828 76635.0234 36839.0547
   vertex 36364.0781 76549.375 36934.5781
  endloop
 endfacet
facet normal 0.342239797 -0.861722112 -0.374575675
  outer loop
   vertex 36285.3008 76569.8359 36813.5234
   vertex 36349.8398 76611.2188 36777.2891
   vertex 36477.3828 76635.0234 36839.0547
  endloop
 endfacet
facet normal -0.540998995 0.0469257012 -0.839713097
  outer loop
   vertex 36120.0742 76731.0703 36786.6484
   vertex 36108.1055 76833.875 36800.1055
   vertex 36143.4258 76797.7812 36775.332
  endloop
 endfacet
facet normal -0.173420131 0.107937731 -0.978915155
  outer loop
   vertex 36079.0742 76792.2266 36800.6562
   vertex 36108.1055 76833.875 36800.1055
   vertex 36120.0742 76731.0703 36786.6484
  endloop
 endfacet
facet normal -0.747439504 0.613916457 -0.25385192
  outer loop
   vertex 36093.6055 76895.2578 36821.8594
   vertex 36071.0312 76868.6641 36824.0039
   vertex 36089.1602 76908.0781 36865.9492
  endloop
 endfacet
facet normal -0.165423363 0.659146965 -0.73359412
  outer loop
   vertex 36367.7656 76990.0234 36882.9258
   vertex 36459.5859 76974.5312 36848.2969
   vertex 36434.75 76934.8047 36818.2031
  endloop
 endfacet
facet normal -0.268498272 0.917373419 -0.293827564
  outer loop
   vertex 36089.1602 76908.0781 36865.9492
   vertex 36159.9219 76922.4062 36846.0156
   vertex 36093.6055 76895.2578 36821.8594
  endloop
 endfacet
facet normal -0.361881971 0.234275714 -0.902306139
  outer loop
   vertex 36108.1055 76833.875 36800.1055
   vertex 36071.0312 76868.6641 36824.0039
   vertex 36093.6055 76895.2578 36821.8594
  endloop
 endfacet
facet normal 0.238573387 0.970725834 0.0278220661
  outer loop
   vertex 36566.1172 77226.0781 37528.5195
   vertex 36620.1016 77216.9297 37385.0352
   vertex 36509.1914 77244.75 37365.3281
  endloop
 endfacet
facet normal -0.54329437 0.797733188 -0.261635303
  outer loop
   vertex 36203.6914 77060.6016 37138.1445
   vertex 36380.9922 77220.9688 37258.918
   vertex 36343.207 77127.875 37053.5352
  endloop
 endfacet
facet normal 0.48791495 0.453155309 -0.746049106
  outer loop
   vertex 36555.8086 77178.9844 37080.1367
   vertex 36465.2461 77128.0625 36989.9766
   vertex 36499.3203 77204.7812 37058.8594
  endloop
 endfacet
facet normal 0.93572253 0.309760749 -0.168735504
  outer loop
   vertex 36566.9766 77221.3359 37219.8125
   vertex 36555.8086 77178.9844 37080.1367
   vertex 36548.4336 77234.5234 37141.1953
  endloop
 endfacet
facet normal 0.536532104 0.794702888 -0.283867329
  outer loop
   vertex 36716.9023 77085.1641 37121.9727
   vertex 36555.8086 77178.9844 37080.1367
   vertex 36566.9766 77221.3359 37219.8125
  endloop
 endfacet
facet normal 0.37079078 0.598257303 -0.710353732
  outer loop
   vertex 36534.2578 77018.7031 36933.8945
   vertex 36465.2461 77128.0625 36989.9766
   vertex 36555.8086 77178.9844 37080.1367
  endloop
 endfacet
facet normal -0.36539495 0.613829195 -0.699785829
  outer loop
   vertex 36465.2461 77128.0625 36989.9766
   vertex 36343.207 77127.875 37053.5352
   vertex 36454.5977 77194.3125 37053.6484
  endloop
 endfacet
facet normal -0.325138867 0.712147951 -0.622197747
  outer loop
   vertex 36465.2461 77128.0625 36989.9766
   vertex 36367.7656 76990.0234 36882.9258
   vertex 36343.207 77127.875 37053.5352
  endloop
 endfacet
facet normal -0.50730449 0.850785434 -0.137136146
  outer loop
   vertex 36486.0938 77225.6562 37131.6094
   vertex 36454.5977 77194.3125 37053.6484
   vertex 36343.207 77127.875 37053.5352
  endloop
 endfacet
facet normal -0.297778487 0.746053815 -0.595593572
  outer loop
   vertex 36168.707 76985.875 36962.9062
   vertex 36229.2891 77076.8438 37046.5703
   vertex 36343.207 77127.875 37053.5352
  endloop
 endfacet
facet normal -0.410737574 0.910559893 0.0466408543
  outer loop
   vertex 36229.2891 77076.8438 37046.5703
   vertex 36203.6914 77060.6016 37138.1445
   vertex 36343.207 77127.875 37053.5352
  endloop
 endfacet
facet normal -0.135373965 0.989096582 -0.0579817705
  outer loop
   vertex 36509.1914 77244.75 37365.3281
   vertex 36380.9922 77220.9688 37258.918
   vertex 36384.6367 77230.6875 37416.1875
  endloop
 endfacet
facet normal -0.0573509336 0.989430308 0.133185968
  outer loop
   vertex 36509.1914 77244.75 37365.3281
   vertex 36384.6367 77230.6875 37416.1875
   vertex 36566.1172 77226.0781 37528.5195
  endloop
 endfacet
facet normal 0.79471314 -0.54613775 -0.264885932
  outer loop
   vertex 36698.4844 76755.7344 37210.1719
   vertex 36619.4062 76650.0938 37190.7383
   vertex 36586.6289 76626.3672 37141.3242
  endloop
 endfacet
facet normal 0.706756353 0.692572951 0.14435415
  outer loop
   vertex 36786.5703 77071.9062 37322.2578
   vertex 36777.0391 77099.6094 37236.0234
   vertex 36710.1172 77155.1875 37297
  endloop
 endfacet
facet normal 0.775247812 0.42951858 -0.463146389
  outer loop
   vertex 36802.6211 77030.7266 37214.9648
   vertex 36716.9023 77085.1641 37121.9727
   vertex 36777.0391 77099.6094 37236.0234
  endloop
 endfacet
facet normal 0.585545599 0.807882607 -0.0667988062
  outer loop
   vertex 36801.4062 77023.5938 37118.0156
   vertex 36716.9023 77085.1641 37121.9727
   vertex 36802.6211 77030.7266 37214.9648
  endloop
 endfacet
facet normal 0.460783482 0.871776402 -0.166386679
  outer loop
   vertex 36486.0938 77225.6562 37131.6094
   vertex 36555.8086 77178.9844 37080.1367
   vertex 36499.3203 77204.7812 37058.8594
  endloop
 endfacet
facet normal 0.838374972 0.464415908 0.285386205
  outer loop
   vertex 36687.1367 77143.6484 37497.6133
   vertex 36771.5234 77045.8984 37408.7891
   vertex 36786.5703 77071.9062 37322.2578
  endloop
 endfacet
facet normal -0.0757656768 0.684593141 -0.724977076
  outer loop
   vertex 36499.3203 77204.7812 37058.8594
   vertex 36465.2461 77128.0625 36989.9766
   vertex 36454.5977 77194.3125 37053.6484
  endloop
 endfacet
facet normal 0.866305888 -0.033347398 -0.498399466
  outer loop
   vertex 36782.7109 77009.1406 37086.4805
   vertex 36790.9648 77053.4609 37097.8633
   vertex 36801.4062 77023.5938 37118.0156
  endloop
 endfacet
facet normal 0.494554251 0.548580885 -0.674147725
  outer loop
   vertex 36716.9023 77085.1641 37121.9727
   vertex 36534.2578 77018.7031 36933.8945
   vertex 36555.8086 77178.9844 37080.1367
  endloop
 endfacet
facet normal -0.0173981376 0.89463383 -0.446461171
  outer loop
   vertex 36459.5859 76974.5312 36848.2969
   vertex 36367.7656 76990.0234 36882.9258
   vertex 36534.2578 77018.7031 36933.8945
  endloop
 endfacet
facet normal -0.591322839 -0.107414521 -0.799249291
  outer loop
   vertex 36530.7734 76664.0703 36795.6484
   vertex 36477.3828 76635.0234 36839.0547
   vertex 36529.6484 76700.0469 36791.6445
  endloop
 endfacet
facet normal -0.183809623 0.935461283 -0.30187121
  outer loop
   vertex 36454.5977 77194.3125 37053.6484
   vertex 36486.0938 77225.6562 37131.6094
   vertex 36499.3203 77204.7812 37058.8594
  endloop
 endfacet
facet normal -0.188083574 0.277061194 -0.94226414
  outer loop
   vertex 36790.9648 77053.4609 37097.8633
   vertex 36782.7109 77009.1406 37086.4805
   vertex 36716.9023 77085.1641 37121.9727
  endloop
 endfacet
facet normal 0.468160242 0.600857377 0.647916973
  outer loop
   vertex 36790.9648 77053.4609 37097.8633
   vertex 36716.9023 77085.1641 37121.9727
   vertex 36801.4062 77023.5938 37118.0156
  endloop
 endfacet
facet normal 0.466053814 0.618518949 -0.632635891
  outer loop
   vertex 36465.2461 77128.0625 36989.9766
   vertex 36534.2578 77018.7031 36933.8945
   vertex 36461.6875 77061.4844 36922.2656
  endloop
 endfacet
facet normal 0.575686514 0.413723975 -0.705278277
  outer loop
   vertex 36678.2383 76933.6641 37001.5352
   vertex 36534.2578 77018.7031 36933.8945
   vertex 36716.9023 77085.1641 37121.9727
  endloop
 endfacet
facet normal 0.23111929 0.568598032 -0.789480925
  outer loop
   vertex 36782.7109 77009.1406 37086.4805
   vertex 36678.2383 76933.6641 37001.5352
   vertex 36716.9023 77085.1641 37121.9727
  endloop
 endfacet
facet normal 0.411420673 0.851624787 -0.324758738
  outer loop
   vertex 36716.9023 77085.1641 37121.9727
   vertex 36710.1172 77155.1875 37297
   vertex 36777.0391 77099.6094 37236.0234
  endloop
 endfacet
facet normal 0.259113431 0.181653276 -0.948610723
  outer loop
   vertex 36534.2578 77018.7031 36933.8945
   vertex 36367.7656 76990.0234 36882.9258
   vertex 36461.6875 77061.4844 36922.2656
  endloop
 endfacet
facet normal -0.248763621 0.697139144 -0.672393978
  outer loop
   vertex 36465.2461 77128.0625 36989.9766
   vertex 36461.6875 77061.4844 36922.2656
   vertex 36367.7656 76990.0234 36882.9258
  endloop
 endfacet
facet normal 0.528056085 0.795315444 -0.297708124
  outer loop
   vertex 36710.1172 77155.1875 37297
   vertex 36716.9023 77085.1641 37121.9727
   vertex 36566.9766 77221.3359 37219.8125
  endloop
 endfacet
facet normal 0.301463604 0.795523465 0.525606453
  outer loop
   vertex 36483.2461 77185.1172 37737.4609
   vertex 36517.3711 77175.8828 37731.8672
   vertex 36502.5117 77191.2656 37717.1172
  endloop
 endfacet
facet normal 0.150232345 -0.0431075729 0.987710476
  outer loop
   vertex 36495.9727 77148.1172 37733.9102
   vertex 36517.3711 77175.8828 37731.8672
   vertex 36483.2461 77185.1172 37737.4609
  endloop
 endfacet
facet normal 0.472297847 0.872009695 -0.128584027
  outer loop
   vertex 36620.1016 77216.9297 37385.0352
   vertex 36710.1172 77155.1875 37297
   vertex 36566.9766 77221.3359 37219.8125
  endloop
 endfacet
facet normal -0.144091398 0.951515257 0.271765232
  outer loop
   vertex 36384.6367 77230.6875 37416.1875
   vertex 36412.1172 77196.4141 37550.7344
   vertex 36566.1172 77226.0781 37528.5195
  endloop
 endfacet
facet normal 0.798840821 -0.218093097 0.560614645
  outer loop
   vertex 36705.5391 77072.1797 37551.4922
   vertex 36638.418 77056.2812 37640.9531
   vertex 36734.6797 77002.1719 37482.7344
  endloop
 endfacet
facet normal 0.636885524 0.762059689 0.116798237
  outer loop
   vertex 36710.1172 77155.1875 37297
   vertex 36620.1016 77216.9297 37385.0352
   vertex 36687.1367 77143.6484 37497.6133
  endloop
 endfacet
facet normal 0.124078877 0.502884448 -0.855401456
  outer loop
   vertex 36650.7266 77241.7109 37549.9805
   vertex 36687.1367 77143.6484 37497.6133
   vertex 36566.1172 77226.0781 37528.5195
  endloop
 endfacet
facet normal 0.58398658 0.793963015 0.169063345
  outer loop
   vertex 36620.1016 77216.9297 37385.0352
   vertex 36566.1172 77226.0781 37528.5195
   vertex 36687.1367 77143.6484 37497.6133
  endloop
 endfacet
facet normal -0.493040502 0.397627413 -0.773823917
  outer loop
   vertex 36380.9922 77220.9688 37258.918
   vertex 36241.9883 77143.2422 37307.543
   vertex 36306.4141 77222.5547 37307.25
  endloop
 endfacet
facet normal 0.252183288 0.96609813 -0.0552987345
  outer loop
   vertex 36566.9766 77221.3359 37219.8125
   vertex 36509.1914 77244.75 37365.3281
   vertex 36620.1016 77216.9297 37385.0352
  endloop
 endfacet
facet normal -0.770501018 0.626292765 0.118682839
  outer loop
   vertex 36241.9883 77143.2422 37307.543
   vertex 36317.9336 77229.8828 37343.3672
   vertex 36306.4141 77222.5547 37307.25
  endloop
 endfacet
facet normal -0.415056109 0.854933262 -0.31115514
  outer loop
   vertex 36343.207 77127.875 37053.5352
   vertex 36380.9922 77220.9688 37258.918
   vertex 36486.0938 77225.6562 37131.6094
  endloop
 endfacet
facet normal -0.539841652 0.798193812 -0.267315745
  outer loop
   vertex 36241.9883 77143.2422 37307.543
   vertex 36380.9922 77220.9688 37258.918
   vertex 36203.6914 77060.6016 37138.1445
  endloop
 endfacet
facet normal 0.717094183 0.694429159 -0.0595317706
  outer loop
   vertex 36380.9922 77220.9688 37258.918
   vertex 36356.8945 77253.1719 37344.3281
   vertex 36384.6367 77230.6875 37416.1875
  endloop
 endfacet
facet normal -0.456922323 0.782079995 -0.423760444
  outer loop
   vertex 36317.9336 77229.8828 37343.3672
   vertex 36356.8945 77253.1719 37344.3281
   vertex 36380.9922 77220.9688 37258.918
  endloop
 endfacet
facet normal -0.472293854 0.772705793 0.424104124
  outer loop
   vertex 36317.9336 77229.8828 37343.3672
   vertex 36384.6367 77230.6875 37416.1875
   vertex 36356.8945 77253.1719 37344.3281
  endloop
 endfacet
facet normal -0.43061927 0.816082716 0.385455668
  outer loop
   vertex 36274.4062 77180.0703 37400.2031
   vertex 36384.6367 77230.6875 37416.1875
   vertex 36317.9336 77229.8828 37343.3672
  endloop
 endfacet
facet normal -0.0896699503 0.981255889 -0.170576185
  outer loop
   vertex 36380.9922 77220.9688 37258.918
   vertex 36306.4141 77222.5547 37307.25
   vertex 36317.9336 77229.8828 37343.3672
  endloop
 endfacet
facet normal 0.556504369 0.788628876 0.261471599
  outer loop
   vertex 36517.3711 77175.8828 37731.8672
   vertex 36580.4531 77151.6172 37670.793
   vertex 36502.5117 77191.2656 37717.1172
  endloop
 endfacet
facet normal 0.693471253 0.50201118 0.516800106
  outer loop
   vertex 36538.0781 77152.3672 37726.9297
   vertex 36580.4531 77151.6172 37670.793
   vertex 36517.3711 77175.8828 37731.8672
  endloop
 endfacet
facet normal 0.168964818 -0.0578231663 0.983924448
  outer loop
   vertex 36538.0781 77152.3672 37726.9297
   vertex 36517.3711 77175.8828 37731.8672
   vertex 36495.9727 77148.1172 37733.9102
  endloop
 endfacet
facet normal -0.291709095 0.835066736 0.4664433
  outer loop
   vertex 36580.4531 77151.6172 37670.793
   vertex 36641.293 77229.8594 37568.7773
   vertex 36566.1172 77226.0781 37528.5195
  endloop
 endfacet
facet normal -0.465821415 0.261318535 0.84541297
  outer loop
   vertex 36566.1172 77226.0781 37528.5195
   vertex 36641.293 77229.8594 37568.7773
   vertex 36640.7109 77259.3984 37559.3242
  endloop
 endfacet
facet normal 0.851655006 0.0205770154 0.523698688
  outer loop
   vertex 36580.4531 77151.6172 37670.793
   vertex 36687.1367 77143.6484 37497.6133
   vertex 36641.293 77229.8594 37568.7773
  endloop
 endfacet
facet normal -0.389486611 0.273704052 0.879423857
  outer loop
   vertex 36657.9766 77263.9531 37565.5547
   vertex 36640.7109 77259.3984 37559.3242
   vertex 36641.293 77229.8594 37568.7773
  endloop
 endfacet
facet normal 0.357348293 0.915948033 -0.182596222
  outer loop
   vertex 36502.5117 77191.2656 37717.1172
   vertex 36580.4531 77151.6172 37670.793
   vertex 36476.9766 77189 37655.8125
  endloop
 endfacet
facet normal 0.251407087 0.867711246 0.42880255
  outer loop
   vertex 36476.9766 77189 37655.8125
   vertex 36580.4531 77151.6172 37670.793
   vertex 36566.1172 77226.0781 37528.5195
  endloop
 endfacet
facet normal 0.160452411 0.530448437 -0.832393825
  outer loop
   vertex 36640.7109 77259.3984 37559.3242
   vertex 36657.9766 77263.9531 37565.5547
   vertex 36650.7266 77241.7109 37549.9805
  endloop
 endfacet
facet normal -0.166172236 -0.0247586146 0.985785902
  outer loop
   vertex 36551.4688 77022.7344 37703.0273
   vertex 36581.4609 77076.4375 37709.4297
   vertex 36473.957 77074.3828 37691.2578
  endloop
 endfacet
facet normal 0.464137703 0.409776539 0.785276592
  outer loop
   vertex 36580.4531 77151.6172 37670.793
   vertex 36559.2422 77101.125 37709.6797
   vertex 36581.4609 77076.4375 37709.4297
  endloop
 endfacet
facet normal 0.807543635 0.340190917 0.481812596
  outer loop
   vertex 36687.1367 77143.6484 37497.6133
   vertex 36580.4531 77151.6172 37670.793
   vertex 36638.418 77056.2812 37640.9531
  endloop
 endfacet
facet normal 0.603252649 0.573293567 0.55445534
  outer loop
   vertex 36705.5391 77072.1797 37551.4922
   vertex 36687.1367 77143.6484 37497.6133
   vertex 36638.418 77056.2812 37640.9531
  endloop
 endfacet
facet normal 0.985495031 -0.00585313234 0.169603288
  outer loop
   vertex 36787.4648 76940.3125 37312.5078
   vertex 36786.5703 77071.9062 37322.2578
   vertex 36771.5234 77045.8984 37408.7891
  endloop
 endfacet
facet normal 0.864312112 0.467336118 0.185907423
  outer loop
   vertex 36638.418 77056.2812 37640.9531
   vertex 36580.4531 77151.6172 37670.793
   vertex 36605.7617 77090.3359 37707.1719
  endloop
 endfacet
facet normal 0.799649715 0.514274478 0.309971094
  outer loop
   vertex 36597.1914 77097.0547 37718.1289
   vertex 36605.7617 77090.3359 37707.1719
   vertex 36580.4531 77151.6172 37670.793
  endloop
 endfacet
facet normal 0.771540463 -0.050183285 0.634197891
  outer loop
   vertex 36591.3828 77061.3125 37722.3711
   vertex 36605.7617 77090.3359 37707.1719
   vertex 36597.1914 77097.0547 37718.1289
  endloop
 endfacet
facet normal -0.606304288 0.248549059 0.755392909
  outer loop
   vertex 36551.4688 77022.7344 37703.0273
   vertex 36591.3828 77061.3125 37722.3711
   vertex 36581.4609 77076.4375 37709.4297
  endloop
 endfacet
facet normal 0.736741483 -0.0449695177 0.674677491
  outer loop
   vertex 36819.5586 77022.4922 37282.9414
   vertex 36786.5703 77071.9062 37322.2578
   vertex 36787.4648 76940.3125 37312.5078
  endloop
 endfacet
facet normal 0.754451752 -0.0836308375 0.651005745
  outer loop
   vertex 36811.1055 76990.8828 37102.5742
   vertex 36801.4062 77023.5938 37118.0156
   vertex 36774.5312 76911.4531 37134.7539
  endloop
 endfacet
facet normal 0.861243069 -0.432400435 -0.267002344
  outer loop
   vertex 36802.6211 77030.7266 37214.9648
   vertex 36819.5586 77022.4922 37282.9414
   vertex 36787.4648 76940.3125 37312.5078
  endloop
 endfacet
facet normal 0.815995812 0.217915863 0.535409629
  outer loop
   vertex 36734.6797 77002.1719 37482.7344
   vertex 36771.5234 77045.8984 37408.7891
   vertex 36687.1367 77143.6484 37497.6133
  endloop
 endfacet
facet normal 0.947057128 0.309158742 0.0866239369
  outer loop
   vertex 36734.6797 77002.1719 37482.7344
   vertex 36687.1367 77143.6484 37497.6133
   vertex 36705.5391 77072.1797 37551.4922
  endloop
 endfacet
facet normal 0.902044415 0.411552876 0.130154178
  outer loop
   vertex 36787.4648 76940.3125 37312.5078
   vertex 36734.6797 77002.1719 37482.7344
   vertex 36774.5 76937.4844 37411.3164
  endloop
 endfacet
facet normal 0.91880697 -0.181086704 0.350715429
  outer loop
   vertex 36771.5234 77045.8984 37408.7891
   vertex 36734.6797 77002.1719 37482.7344
   vertex 36787.4648 76940.3125 37312.5078
  endloop
 endfacet
facet normal 0.831475019 -0.299441487 0.467957318
  outer loop
   vertex 36641.2773 76937.375 37559.7812
   vertex 36638.418 77056.2812 37640.9531
   vertex 36607.082 76989.2031 37653.707
  endloop
 endfacet
facet normal 0.272319585 -0.797084033 0.538979709
  outer loop
   vertex 36641.2773 76937.375 37559.7812
   vertex 36607.082 76989.2031 37653.707
   vertex 36498.8789 76928.3828 37618.4297
  endloop
 endfacet
facet normal 0.870919943 0.180224597 -0.457184404
  outer loop
   vertex 36581.4609 77076.4375 37709.4297
   vertex 36591.3828 77061.3125 37722.3711
   vertex 36584.7656 77024.4297 37695.2227
  endloop
 endfacet
facet normal 0.233332962 -0.539265335 -0.809165418
  outer loop
   vertex 36605.7617 77090.3359 37707.1719
   vertex 36591.3828 77061.3125 37722.3711
   vertex 36581.4609 77076.4375 37709.4297
  endloop
 endfacet
facet normal 0.446362406 -0.687000453 0.573402941
  outer loop
   vertex 36581.4609 77076.4375 37709.4297
   vertex 36638.418 77056.2812 37640.9531
   vertex 36605.7617 77090.3359 37707.1719
  endloop
 endfacet
facet normal 0.210891053 -0.603677511 0.768829226
  outer loop
   vertex 36591.3828 77061.3125 37722.3711
   vertex 36551.4688 77022.7344 37703.0273
   vertex 36584.7656 77024.4297 37695.2227
  endloop
 endfacet
facet normal 0.289064676 0.269344509 -0.918637633
  outer loop
   vertex 36559.2422 77101.125 37709.6797
   vertex 36581.4609 77076.4375 37709.4297
   vertex 36584.7656 77024.4297 37695.2227
  endloop
 endfacet
facet normal 0.681398034 0.0898290426 0.726379693
  outer loop
   vertex 36638.418 77056.2812 37640.9531
   vertex 36559.2422 77101.125 37709.6797
   vertex 36584.7656 77024.4297 37695.2227
  endloop
 endfacet
facet normal -0.686341047 -0.613696575 -0.390272349
  outer loop
   vertex 36638.418 77056.2812 37640.9531
   vertex 36581.4609 77076.4375 37709.4297
   vertex 36559.2422 77101.125 37709.6797
  endloop
 endfacet
facet normal 0.501025617 -0.6065377 0.617321134
  outer loop
   vertex 36671.6875 76775.3438 37363.0938
   vertex 36726.8516 76874.1797 37415.4336
   vertex 36565.1484 76801.4609 37475.2227
  endloop
 endfacet
facet normal 0.526296675 -0.608338237 0.594084501
  outer loop
   vertex 36671.6875 76775.3438 37363.0938
   vertex 36735.0156 76802.0156 37334.3047
   vertex 36726.8516 76874.1797 37415.4336
  endloop
 endfacet
facet normal 0.453519166 -0.870520711 0.191086546
  outer loop
   vertex 36735.0156 76802.0156 37334.3047
   vertex 36671.6875 76775.3438 37363.0938
   vertex 36698.4844 76755.7344 37210.1719
  endloop
 endfacet
facet normal 0.904742599 -0.425664514 -0.0158269778
  outer loop
   vertex 36621.9961 77019.9141 37680.2344
   vertex 36607.082 76989.2031 37653.707
   vertex 36638.418 77056.2812 37640.9531
  endloop
 endfacet
facet normal 0.730569065 -0.372905582 0.572022915
  outer loop
   vertex 36638.418 77056.2812 37640.9531
   vertex 36641.2773 76937.375 37559.7812
   vertex 36734.6797 77002.1719 37482.7344
  endloop
 endfacet
facet normal 0.195122957 -0.693634331 0.69339633
  outer loop
   vertex 36621.9961 77019.9141 37680.2344
   vertex 36584.7656 77024.4297 37695.2227
   vertex 36607.082 76989.2031 37653.707
  endloop
 endfacet
facet normal 0.113457493 -0.902908027 0.414589494
  outer loop
   vertex 36308.9102 76551.0938 37207.793
   vertex 36410.1953 76613.5938 37316.1992
   vertex 36274.6055 76609.5391 37344.4688
  endloop
 endfacet
facet normal 0.521525919 -0.829990029 0.19780606
  outer loop
   vertex 36671.6875 76775.3438 37363.0938
   vertex 36551.1094 76694.75 37342.8359
   vertex 36698.4844 76755.7344 37210.1719
  endloop
 endfacet
facet normal 0.593708336 -0.738244176 0.320165515
  outer loop
   vertex 36698.4844 76755.7344 37210.1719
   vertex 36551.1094 76694.75 37342.8359
   vertex 36526.6602 76619.5469 37214.7578
  endloop
 endfacet
facet normal 0.354530692 -0.419131875 0.835844755
  outer loop
   vertex 36698.4844 76755.7344 37210.1719
   vertex 36526.6602 76619.5469 37214.7578
   vertex 36619.4062 76650.0938 37190.7383
  endloop
 endfacet
facet normal -0.425465286 -0.461057752 0.77872014
  outer loop
   vertex 36551.4688 77022.7344 37703.0273
   vertex 36473.957 77074.3828 37691.2578
   vertex 36498.8789 76928.3828 37618.4297
  endloop
 endfacet
facet normal 0.502747655 -0.641848922 0.579029143
  outer loop
   vertex 36726.8516 76874.1797 37415.4336
   vertex 36641.2773 76937.375 37559.7812
   vertex 36565.1484 76801.4609 37475.2227
  endloop
 endfacet
facet normal 0.750173688 -0.661129415 -0.0121399639
  outer loop
   vertex 36584.7656 77024.4297 37695.2227
   vertex 36551.1133 76986.3438 37689.7969
   vertex 36498.8789 76928.3828 37618.4297
  endloop
 endfacet
facet normal 0.171022072 -0.704035103 0.689264834
  outer loop
   vertex 36584.7656 77024.4297 37695.2227
   vertex 36498.8789 76928.3828 37618.4297
   vertex 36607.082 76989.2031 37653.707
  endloop
 endfacet
facet normal 0.328729212 -0.752028108 0.571306229
  outer loop
   vertex 36551.1094 76694.75 37342.8359
   vertex 36565.1484 76801.4609 37475.2227
   vertex 36378.2891 76688.3281 37433.8242
  endloop
 endfacet
facet normal 0.398447722 -0.734282017 0.54960835
  outer loop
   vertex 36551.1094 76694.75 37342.8359
   vertex 36671.6875 76775.3438 37363.0938
   vertex 36565.1484 76801.4609 37475.2227
  endloop
 endfacet
facet normal -0.254944444 -0.313510031 0.914721131
  outer loop
   vertex 36304.1562 76954.4297 37573.0859
   vertex 36258.6406 76764.7266 37495.3789
   vertex 36498.8789 76928.3828 37618.4297
  endloop
 endfacet
facet normal -0.259321094 -0.46617347 0.845833838
  outer loop
   vertex 36473.957 77074.3828 37691.2578
   vertex 36304.1562 76954.4297 37573.0859
   vertex 36498.8789 76928.3828 37618.4297
  endloop
 endfacet
facet normal -0.0327019468 -0.657656729 0.752607644
  outer loop
   vertex 36258.6406 76764.7266 37495.3789
   vertex 36378.2891 76688.3281 37433.8242
   vertex 36425.4961 76783.0938 37518.6875
  endloop
 endfacet
facet normal -0.0567397848 -0.545440316 0.83622694
  outer loop
   vertex 36498.8789 76928.3828 37618.4297
   vertex 36258.6406 76764.7266 37495.3789
   vertex 36425.4961 76783.0938 37518.6875
  endloop
 endfacet
facet normal 0.30396986 -0.638779342 0.706797898
  outer loop
   vertex 36498.8789 76928.3828 37618.4297
   vertex 36425.4961 76783.0938 37518.6875
   vertex 36565.1484 76801.4609 37475.2227
  endloop
 endfacet
facet normal -0.676100731 -0.245903343 0.694564164
  outer loop
   vertex 36551.4688 77022.7344 37703.0273
   vertex 36498.8789 76928.3828 37618.4297
   vertex 36551.1133 76986.3438 37689.7969
  endloop
 endfacet
facet normal 0.291821152 -0.714636445 0.635716259
  outer loop
   vertex 36565.1484 76801.4609 37475.2227
   vertex 36425.4961 76783.0938 37518.6875
   vertex 36378.2891 76688.3281 37433.8242
  endloop
 endfacet
facet normal 0.281034917 -0.921331465 0.268640429
  outer loop
   vertex 36308.9102 76551.0938 37207.793
   vertex 36526.6602 76619.5469 37214.7578
   vertex 36410.1953 76613.5938 37316.1992
  endloop
 endfacet
facet normal 0.986621797 -0.153266355 -0.0555598922
  outer loop
   vertex 36786.2617 76843.3828 37207.707
   vertex 36779.332 76801.3438 37200.6016
   vertex 36782.0156 76823.7969 37186.332
  endloop
 endfacet
facet normal 0.895198762 -0.203051224 0.396723241
  outer loop
   vertex 36726.8516 76874.1797 37415.4336
   vertex 36759.2852 76837.0156 37323.2266
   vertex 36787.4648 76940.3125 37312.5078
  endloop
 endfacet
facet normal 0.224797577 -0.198344752 0.954004943
  outer loop
   vertex 36786.2617 76843.3828 37207.707
   vertex 36698.4844 76755.7344 37210.1719
   vertex 36779.332 76801.3438 37200.6016
  endloop
 endfacet
facet normal 0.795574665 -0.410719037 0.445388436
  outer loop
   vertex 36735.0156 76802.0156 37334.3047
   vertex 36759.2852 76837.0156 37323.2266
   vertex 36726.8516 76874.1797 37415.4336
  endloop
 endfacet
facet normal 0.993163049 0.079783529 -0.0852161199
  outer loop
   vertex 36787.4648 76940.3125 37312.5078
   vertex 36786.2617 76843.3828 37207.707
   vertex 36774.5312 76911.4531 37134.7539
  endloop
 endfacet
facet normal 0.155491412 -0.491059035 -0.857136786
  outer loop
   vertex 36774.5312 76911.4531 37134.7539
   vertex 36782.0156 76823.7969 37186.332
   vertex 36698.4844 76755.7344 37210.1719
  endloop
 endfacet
facet normal 0.984007001 -0.0201428719 -0.176987246
  outer loop
   vertex 36774.5312 76911.4531 37134.7539
   vertex 36786.2617 76843.3828 37207.707
   vertex 36782.0156 76823.7969 37186.332
  endloop
 endfacet
facet normal 0.07064908 -0.974979818 -0.210767761
  outer loop
   vertex 36364.0781 76549.375 36934.5781
   vertex 36203.3125 76540.0078 36924.0156
   vertex 36285.3008 76569.8359 36813.5234
  endloop
 endfacet
facet normal 0.334467828 -0.92359525 0.187358201
  outer loop
   vertex 36526.6602 76619.5469 37214.7578
   vertex 36450.582 76563.0625 37072.1523
   vertex 36586.6289 76626.3672 37141.3242
  endloop
 endfacet
facet normal 0.286438495 -0.933246613 0.216803521
  outer loop
   vertex 36308.9102 76551.0938 37207.793
   vertex 36450.582 76563.0625 37072.1523
   vertex 36526.6602 76619.5469 37214.7578
  endloop
 endfacet
facet normal 0.644693673 0.474207878 -0.599580646
  outer loop
   vertex 36782.7109 77009.1406 37086.4805
   vertex 36801.4062 77023.5938 37118.0156
   vertex 36811.1055 76990.8828 37102.5742
  endloop
 endfacet
facet normal -0.412543982 0.345743418 -0.84277457
  outer loop
   vertex 36415.4062 76829.7891 36788.4961
   vertex 36415.8242 76745.9688 36753.9062
   vertex 36358.1133 76699.3359 36763.0273
  endloop
 endfacet
facet normal 0.205542997 -0.447332591 -0.870428443
  outer loop
   vertex 36774.5312 76911.4531 37134.7539
   vertex 36782.7109 77009.1406 37086.4805
   vertex 36811.1055 76990.8828 37102.5742
  endloop
 endfacet
facet normal 0.353517026 -0.912934065 0.203904688
  outer loop
   vertex 36586.6289 76626.3672 37141.3242
   vertex 36619.4062 76650.0938 37190.7383
   vertex 36526.6602 76619.5469 37214.7578
  endloop
 endfacet
facet normal 0.73018074 -0.350845218 -0.586296618
  outer loop
   vertex 36782.7109 77009.1406 37086.4805
   vertex 36774.5312 76911.4531 37134.7539
   vertex 36678.2383 76933.6641 37001.5352
  endloop
 endfacet
facet normal 0.209594965 -0.542235017 -0.813665271
  outer loop
   vertex 36779.332 76801.3438 37200.6016
   vertex 36698.4844 76755.7344 37210.1719
   vertex 36782.0156 76823.7969 37186.332
  endloop
 endfacet
facet normal 0.97806257 -0.204833165 -0.0379072167
  outer loop
   vertex 36802.6211 77030.7266 37214.9648
   vertex 36787.4648 76940.3125 37312.5078
   vertex 36774.5312 76911.4531 37134.7539
  endloop
 endfacet
facet normal 0.972616792 -0.232362226 0.00493562967
  outer loop
   vertex 36801.4062 77023.5938 37118.0156
   vertex 36802.6211 77030.7266 37214.9648
   vertex 36774.5312 76911.4531 37134.7539
  endloop
 endfacet
facet normal 0.440211415 -0.896757066 -0.0451732688
  outer loop
   vertex 36450.582 76563.0625 37072.1523
   vertex 36575.6016 76627.0781 37019.7188
   vertex 36586.6289 76626.3672 37141.3242
  endloop
 endfacet
facet normal 0.855367362 -0.457628012 -0.242741242
  outer loop
   vertex 36621.4492 76743.0625 36962.6211
   vertex 36698.4844 76755.7344 37210.1719
   vertex 36575.6016 76627.0781 37019.7188
  endloop
 endfacet
facet normal 0.2092513 -0.977259338 -0.0343235508
  outer loop
   vertex 36450.582 76563.0625 37072.1523
   vertex 36364.0781 76549.375 36934.5781
   vertex 36489.3555 76575.6953 36948.9805
  endloop
 endfacet
facet normal 0.188004896 -0.981954217 -0.0204965919
  outer loop
   vertex 36450.582 76563.0625 37072.1523
   vertex 36261.1992 76527.25 37050.9531
   vertex 36364.0781 76549.375 36934.5781
  endloop
 endfacet
facet normal -0.290148616 -0.847683012 -0.444125324
  outer loop
   vertex 36203.3125 76540.0078 36924.0156
   vertex 36132.0469 76610.6328 36835.7852
   vertex 36285.3008 76569.8359 36813.5234
  endloop
 endfacet
facet normal -0.228194952 -0.956491172 0.181801111
  outer loop
   vertex 36132.0469 76610.6328 36835.7852
   vertex 36228.9961 76574.6016 36767.9453
   vertex 36285.3008 76569.8359 36813.5234
  endloop
 endfacet
facet normal -0.411769211 -0.894915402 0.171966732
  outer loop
   vertex 36228.9961 76574.6016 36767.9453
   vertex 36251.1523 76560.2578 36746.3281
   vertex 36258.043 76559.3047 36757.8789
  endloop
 endfacet
facet normal -0.00204582629 0.192505002 -0.981293857
  outer loop
   vertex 36415.4062 76829.7891 36788.4961
   vertex 36358.1133 76699.3359 36763.0273
   vertex 36233.0117 76814.4609 36785.8711
  endloop
 endfacet
facet normal 0.273913205 -0.178682327 -0.945010126
  outer loop
   vertex 36268.4609 76599.5391 36755.9102
   vertex 36358.1133 76699.3359 36763.0273
   vertex 36349.8398 76611.2188 36777.2891
  endloop
 endfacet
facet normal 0.773506403 -0.629473388 -0.0738314167
  outer loop
   vertex 36698.4844 76755.7344 37210.1719
   vertex 36586.6289 76626.3672 37141.3242
   vertex 36575.6016 76627.0781 37019.7188
  endloop
 endfacet
facet normal 0.522861719 0.48051849 -0.704072177
  outer loop
   vertex 36534.2578 77018.7031 36933.8945
   vertex 36483.6055 76917.8672 36827.4609
   vertex 36459.5859 76974.5312 36848.2969
  endloop
 endfacet
facet normal 0.825659394 -0.514905095 -0.230563134
  outer loop
   vertex 36698.4844 76755.7344 37210.1719
   vertex 36621.4492 76743.0625 36962.6211
   vertex 36774.5312 76911.4531 37134.7539
  endloop
 endfacet
facet normal 0.244991779 -0.469098926 -0.848484039
  outer loop
   vertex 36462.6758 76728.6953 36776.9883
   vertex 36358.1133 76699.3359 36763.0273
   vertex 36415.8242 76745.9688 36753.9062
  endloop
 endfacet
facet normal 0.66441977 -0.636845827 0.391118616
  outer loop
   vertex 36530.7734 76664.0703 36795.6484
   vertex 36553.3281 76702.0469 36819.1758
   vertex 36477.3828 76635.0234 36839.0547
  endloop
 endfacet
facet normal 0.648216844 -0.559247315 -0.516775906
  outer loop
   vertex 36554.2148 76726.2109 36794.1406
   vertex 36553.3281 76702.0469 36819.1758
   vertex 36529.6484 76700.0469 36791.6445
  endloop
 endfacet
facet normal 0.335401088 0.33324483 -0.881166279
  outer loop
   vertex 36545.7578 76807.9531 36838.5859
   vertex 36529.6484 76700.0469 36791.6445
   vertex 36462.6758 76728.6953 36776.9883
  endloop
 endfacet
facet normal 0.694211245 0.327705294 -0.640843153
  outer loop
   vertex 36483.6055 76917.8672 36827.4609
   vertex 36534.2578 77018.7031 36933.8945
   vertex 36545.7578 76807.9531 36838.5859
  endloop
 endfacet
facet normal 0.563854814 0.365665644 -0.740510881
  outer loop
   vertex 36678.2383 76933.6641 37001.5352
   vertex 36545.7578 76807.9531 36838.5859
   vertex 36534.2578 77018.7031 36933.8945
  endloop
 endfacet
facet normal -0.359241456 0.416852325 -0.834972858
  outer loop
   vertex 36554.2148 76726.2109 36794.1406
   vertex 36529.6484 76700.0469 36791.6445
   vertex 36545.7578 76807.9531 36838.5859
  endloop
 endfacet
facet normal 0.254585773 0.21951215 -0.941807032
  outer loop
   vertex 36483.6055 76917.8672 36827.4609
   vertex 36415.4062 76829.7891 36788.4961
   vertex 36434.75 76934.8047 36818.2031
  endloop
 endfacet
facet normal 0.79573977 -0.115706146 -0.594483197
  outer loop
   vertex 36678.2383 76933.6641 37001.5352
   vertex 36774.5312 76911.4531 37134.7539
   vertex 36621.4492 76743.0625 36962.6211
  endloop
 endfacet
facet normal 0.815514565 -0.127726361 -0.564466119
  outer loop
   vertex 36545.7578 76807.9531 36838.5859
   vertex 36678.2383 76933.6641 37001.5352
   vertex 36621.4492 76743.0625 36962.6211
  endloop
 endfacet
facet normal 0.384854525 0.280074745 -0.879457295
  outer loop
   vertex 36415.4062 76829.7891 36788.4961
   vertex 36545.7578 76807.9531 36838.5859
   vertex 36462.6758 76728.6953 36776.9883
  endloop
 endfacet
facet normal 0.373334259 0.11798586 -0.920163512
  outer loop
   vertex 36483.6055 76917.8672 36827.4609
   vertex 36545.7578 76807.9531 36838.5859
   vertex 36415.4062 76829.7891 36788.4961
  endloop
 endfacet
facet normal 0.474555254 -0.878222942 0.0593443438
  outer loop
   vertex 36489.3555 76575.6953 36948.9805
   vertex 36575.6016 76627.0781 37019.7188
   vertex 36450.582 76563.0625 37072.1523
  endloop
 endfacet
facet normal 0.472503155 -0.879110694 0.0624910891
  outer loop
   vertex 36489.3555 76575.6953 36948.9805
   vertex 36537.582 76599.6719 36921.6523
   vertex 36575.6016 76627.0781 37019.7188
  endloop
 endfacet
facet normal 0.232858494 -0.844983935 -0.481434435
  outer loop
   vertex 36489.3555 76575.6953 36948.9805
   vertex 36364.0781 76549.375 36934.5781
   vertex 36477.3828 76635.0234 36839.0547
  endloop
 endfacet
facet normal 0.512248874 0.329793304 -0.792992771
  outer loop
   vertex 36415.8242 76745.9688 36753.9062
   vertex 36415.4062 76829.7891 36788.4961
   vertex 36462.6758 76728.6953 36776.9883
  endloop
 endfacet
facet normal 0.99458164 0.0549012758 0.0882791504
  outer loop
   vertex 36545.7578 76807.9531 36838.5859
   vertex 36553.3281 76702.0469 36819.1758
   vertex 36554.2148 76726.2109 36794.1406
  endloop
 endfacet
facet normal 0.876649559 0.146627858 -0.458242148
  outer loop
   vertex 36621.4492 76743.0625 36962.6211
   vertex 36553.3281 76702.0469 36819.1758
   vertex 36545.7578 76807.9531 36838.5859
  endloop
 endfacet
facet normal -0.057303369 -0.557687461 -0.828070641
  outer loop
   vertex 36462.6758 76728.6953 36776.9883
   vertex 36529.6484 76700.0469 36791.6445
   vertex 36477.3828 76635.0234 36839.0547
  endloop
 endfacet
facet normal 0.252317697 -0.506642818 -0.824408174
  outer loop
   vertex 36358.1133 76699.3359 36763.0273
   vertex 36462.6758 76728.6953 36776.9883
   vertex 36477.3828 76635.0234 36839.0547
  endloop
 endfacet
facet normal 0.623748302 -0.442791939 -0.644106686
  outer loop
   vertex 36564.9219 76635.0469 36923.8047
   vertex 36537.582 76599.6719 36921.6523
   vertex 36477.3828 76635.0234 36839.0547
  endloop
 endfacet
facet normal 0.155359343 -0.862144053 -0.482256263
  outer loop
   vertex 36537.582 76599.6719 36921.6523
   vertex 36489.3555 76575.6953 36948.9805
   vertex 36477.3828 76635.0234 36839.0547
  endloop
 endfacet
facet normal 0.455993712 -0.183763728 -0.870804608
  outer loop
   vertex 36358.1133 76699.3359 36763.0273
   vertex 36477.3828 76635.0234 36839.0547
   vertex 36349.8398 76611.2188 36777.2891
  endloop
 endfacet
facet normal 0.896985412 -0.420979708 -0.134882227
  outer loop
   vertex 36621.4492 76743.0625 36962.6211
   vertex 36575.6016 76627.0781 37019.7188
   vertex 36564.9219 76635.0469 36923.8047
  endloop
 endfacet
facet normal 0.759039104 -0.0485649928 -0.649231136
  outer loop
   vertex 36529.6484 76700.0469 36791.6445
   vertex 36553.3281 76702.0469 36819.1758
   vertex 36530.7734 76664.0703 36795.6484
  endloop
 endfacet
facet normal 0.787781596 -0.600379944 -0.137637392
  outer loop
   vertex 36575.6016 76627.0781 37019.7188
   vertex 36537.582 76599.6719 36921.6523
   vertex 36564.9219 76635.0469 36923.8047
  endloop
 endfacet
endsolid MATLAB_1
